<?xml version="1.0" encoding="UTF-8" standalone="no"?>
<svg
   version="1.0"
   preserveAspectRatio="xMidYMid meet"
   viewBox="13.499999999999998 140.999996616 334.5 88.499997876"
   zoomAndPan="magnify"
   style="max-height: 500px"
   width="334.5"
   height="88.499997876"
   id="svg146"
   sodipodi:docname="SPLITSTORM.svg"
   inkscape:version="1.4 (86a8ad7, 2024-10-11)"
   xmlns:inkscape="http://www.inkscape.org/namespaces/inkscape"
   xmlns:sodipodi="http://sodipodi.sourceforge.net/DTD/sodipodi-0.dtd"
   xmlns="http://www.w3.org/2000/svg"
   xmlns:svg="http://www.w3.org/2000/svg">
  <sodipodi:namedview
     id="namedview146"
     pagecolor="#ffffff"
     bordercolor="#000000"
     borderopacity="0.25"
     inkscape:showpageshadow="2"
     inkscape:pageopacity="0.0"
     inkscape:pagecheckerboard="0"
     inkscape:deskcolor="#d1d1d1"
     showguides="false"
     inkscape:zoom="2"
     inkscape:cx="156"
     inkscape:cy="-25.25"
     inkscape:window-width="1920"
     inkscape:window-height="1057"
     inkscape:window-x="-8"
     inkscape:window-y="-8"
     inkscape:window-maximized="1"
     inkscape:current-layer="svg146" />
  <defs
     id="defs11">
    <g
       id="g1" />
    <clipPath
       id="96f8499be7">
      <path
         clip-rule="nonzero"
         d="M 205 152 L 343 152 L 343 207 L 205 207 Z M 205 152"
         id="path1" />
    </clipPath>
    <clipPath
       id="6ecc6e99e3">
      <path
         clip-rule="nonzero"
         d="M 214.910156 134.21875 L 351.667969 152.667969 L 339.839844 240.375 L 203.078125 221.925781 Z M 214.910156 134.21875"
         id="path2" />
    </clipPath>
    <clipPath
       id="db6de01f27">
      <path
         clip-rule="nonzero"
         d="M 214.910156 134.21875 L 351.667969 152.667969 L 339.839844 240.375 L 203.078125 221.925781 Z M 214.910156 134.21875"
         id="path3" />
    </clipPath>
    <clipPath
       id="a87cc64cc8">
      <path
         clip-rule="nonzero"
         d="M 269 179 L 347 179 L 347 213 L 269 213 Z M 269 179"
         id="path4" />
    </clipPath>
    <clipPath
       id="d6d0ccf694">
      <path
         clip-rule="nonzero"
         d="M 214.910156 134.21875 L 351.667969 152.667969 L 339.839844 240.375 L 203.078125 221.925781 Z M 214.910156 134.21875"
         id="path5" />
    </clipPath>
    <clipPath
       id="89394bf311">
      <path
         clip-rule="nonzero"
         d="M 214.910156 134.21875 L 351.667969 152.667969 L 339.839844 240.375 L 203.078125 221.925781 Z M 214.910156 134.21875"
         id="path6" />
    </clipPath>
    <clipPath
       id="9c3c6c4271">
      <path
         clip-rule="nonzero"
         d="M 235 214 L 316 214 L 316 228 L 235 228 Z M 235 214"
         id="path7" />
    </clipPath>
    <clipPath
       id="4abb83b5ce">
      <path
         clip-rule="nonzero"
         d="M 214.910156 134.21875 L 351.667969 152.667969 L 339.839844 240.375 L 203.078125 221.925781 Z M 214.910156 134.21875"
         id="path8" />
    </clipPath>
    <clipPath
       id="0d610076a1">
      <path
         clip-rule="nonzero"
         d="M 214.910156 134.21875 L 351.667969 152.667969 L 339.839844 240.375 L 203.078125 221.925781 Z M 214.910156 134.21875"
         id="path9" />
    </clipPath>
    <clipPath
       id="12b6c721f2">
      <path
         clip-rule="nonzero"
         d="M 15.203125 143 L 152 143 L 152 174.875 L 15.203125 174.875 Z M 15.203125 143"
         id="path10" />
    </clipPath>
    <filter
       id="mask-powermask-path-effect152_inverse"
       inkscape:label="filtermask-powermask-path-effect152"
       style="color-interpolation-filters:sRGB"
       height="100"
       width="100"
       x="-50"
       y="-50">
      <feColorMatrix
         id="mask-powermask-path-effect152_primitive1"
         values="1"
         type="saturate"
         result="fbSourceGraphic" />
      <feColorMatrix
         id="mask-powermask-path-effect152_primitive2"
         values="-1 0 0 0 1 0 -1 0 0 1 0 0 -1 0 1 0 0 0 1 0 "
         in="fbSourceGraphic" />
    </filter>
    <filter
       id="mask-powermask-path-effect174_inverse"
       inkscape:label="filtermask-powermask-path-effect174"
       style="color-interpolation-filters:sRGB"
       height="100"
       width="100"
       x="-50"
       y="-50">
      <feColorMatrix
         id="mask-powermask-path-effect174_primitive1"
         values="1"
         type="saturate"
         result="fbSourceGraphic" />
      <feColorMatrix
         id="mask-powermask-path-effect174_primitive2"
         values="-1 0 0 0 1 0 -1 0 0 1 0 0 -1 0 1 0 0 0 1 0 "
         in="fbSourceGraphic" />
    </filter>
    <filter
       id="mask-powermask-path-effect175_inverse"
       inkscape:label="filtermask-powermask-path-effect175"
       style="color-interpolation-filters:sRGB"
       height="100"
       width="100"
       x="-50"
       y="-50">
      <feColorMatrix
         id="mask-powermask-path-effect175_primitive1"
         values="1"
         type="saturate"
         result="fbSourceGraphic" />
      <feColorMatrix
         id="mask-powermask-path-effect175_primitive2"
         values="-1 0 0 0 1 0 -1 0 0 1 0 0 -1 0 1 0 0 0 1 0 "
         in="fbSourceGraphic" />
    </filter>
    <filter
       id="mask-powermask-path-effect176_inverse"
       inkscape:label="filtermask-powermask-path-effect176"
       style="color-interpolation-filters:sRGB"
       height="100"
       width="100"
       x="-50"
       y="-50">
      <feColorMatrix
         id="mask-powermask-path-effect176_primitive1"
         values="1"
         type="saturate"
         result="fbSourceGraphic" />
      <feColorMatrix
         id="mask-powermask-path-effect176_primitive2"
         values="-1 0 0 0 1 0 -1 0 0 1 0 0 -1 0 1 0 0 0 1 0 "
         in="fbSourceGraphic" />
    </filter>
    <filter
       id="mask-powermask-path-effect177_inverse"
       inkscape:label="filtermask-powermask-path-effect177"
       style="color-interpolation-filters:sRGB"
       height="100"
       width="100"
       x="-50"
       y="-50">
      <feColorMatrix
         id="mask-powermask-path-effect177_primitive1"
         values="1"
         type="saturate"
         result="fbSourceGraphic" />
      <feColorMatrix
         id="mask-powermask-path-effect177_primitive2"
         values="-1 0 0 0 1 0 -1 0 0 1 0 0 -1 0 1 0 0 0 1 0 "
         in="fbSourceGraphic" />
    </filter>
    <filter
       id="mask-powermask-path-effect183_inverse"
       inkscape:label="filtermask-powermask-path-effect183"
       style="color-interpolation-filters:sRGB"
       height="100"
       width="100"
       x="-50"
       y="-50">
      <feColorMatrix
         id="mask-powermask-path-effect183_primitive1"
         values="1"
         type="saturate"
         result="fbSourceGraphic" />
      <feColorMatrix
         id="mask-powermask-path-effect183_primitive2"
         values="-1 0 0 0 1 0 -1 0 0 1 0 0 -1 0 1 0 0 0 1 0 "
         in="fbSourceGraphic" />
    </filter>
    <filter
       id="mask-powermask-path-effect185_inverse"
       inkscape:label="filtermask-powermask-path-effect185"
       style="color-interpolation-filters:sRGB"
       height="100"
       width="100"
       x="-50"
       y="-50">
      <feColorMatrix
         id="mask-powermask-path-effect185_primitive1"
         values="1"
         type="saturate"
         result="fbSourceGraphic" />
      <feColorMatrix
         id="mask-powermask-path-effect185_primitive2"
         values="-1 0 0 0 1 0 -1 0 0 1 0 0 -1 0 1 0 0 0 1 0 "
         in="fbSourceGraphic" />
    </filter>
    <filter
       id="mask-powermask-path-effect191_inverse"
       inkscape:label="filtermask-powermask-path-effect191"
       style="color-interpolation-filters:sRGB"
       height="100"
       width="100"
       x="-50"
       y="-50">
      <feColorMatrix
         id="mask-powermask-path-effect191_primitive1"
         values="1"
         type="saturate"
         result="fbSourceGraphic" />
      <feColorMatrix
         id="mask-powermask-path-effect191_primitive2"
         values="-1 0 0 0 1 0 -1 0 0 1 0 0 -1 0 1 0 0 0 1 0 "
         in="fbSourceGraphic" />
    </filter>
    <clipPath
       clipPathUnits="userSpaceOnUse"
       id="clipPath196">
      <path
         clip-rule="nonzero"
         d="m 72,152 h 93.95312 v 22.875 H 72 Z m 0,0"
         id="path196" />
    </clipPath>
  </defs>
  <g
     clip-path="url(#96f8499be7)"
     id="g14">
    <g
       clip-path="url(#6ecc6e99e3)"
       id="g13">
      <g
         clip-path="url(#db6de01f27)"
         id="g12">
        <path
           fill-rule="evenodd"
           fill-opacity="1"
           d="M 341.53125 153.375 C 341.171875 153.761719 339.59375 155.769531 338.007812 157.84375 C 326.042969 173.359375 314.609375 182.84375 298.453125 190.644531 C 281.996094 198.601562 260.128906 203.539062 240.804688 203.65625 C 233.714844 203.703125 229.144531 203.5 218.816406 202.675781 C 210.796875 202.050781 207.800781 201.953125 206.441406 202.335938 L 205.765625 202.503906 L 206.597656 202.792969 C 209.101562 203.628906 213.460938 204.414062 219.15625 205.03125 C 239.632812 207.335938 256.511719 206.277344 275.296875 201.578125 C 286.167969 198.859375 296.113281 194.925781 305.820312 189.523438 C 314.207031 184.835938 321.5625 179.269531 328.289062 172.550781 C 333.707031 167.113281 337 162.894531 340.433594 156.972656 C 342.59375 153.253906 343.109375 151.515625 341.53125 153.375 Z M 341.53125 153.375"
           fill="#51368d"
           id="path12" />
      </g>
    </g>
  </g>
  <g
     clip-path="url(#a87cc64cc8)"
     id="g17">
    <g
       clip-path="url(#d6d0ccf694)"
       id="g16">
      <g
         clip-path="url(#89394bf311)"
         id="g15">
        <path
           fill-rule="evenodd"
           fill-opacity="1"
           d="M 345.933594 179.527344 C 345.53125 179.757812 343.046875 181.558594 340.382812 183.53125 C 326.050781 194.128906 319.847656 197.953125 310.507812 201.925781 C 300.867188 206.027344 293.539062 207.851562 278.082031 210.015625 C 272.195312 210.832031 270.496094 211.171875 269.863281 211.652344 C 268.917969 212.375 269.042969 212.738281 270.261719 212.75 C 277 212.875 290.410156 210.871094 299.4375 208.386719 C 306.660156 206.394531 316.257812 202.285156 322.867188 198.339844 C 327.773438 195.425781 334.582031 190.660156 338.726562 187.25 C 343.875 183 348.484375 178.0625 345.933594 179.527344 Z M 345.933594 179.527344"
           fill="#51368d"
           id="path14" />
      </g>
    </g>
  </g>
  <g
     clip-path="url(#9c3c6c4271)"
     id="g20">
    <g
       clip-path="url(#4abb83b5ce)"
       id="g19">
      <g
         clip-path="url(#0d610076a1)"
         id="g18">
        <path
           fill-rule="evenodd"
           fill-opacity="1"
           d="M 314.277344 214.546875 C 313.488281 214.726562 309.777344 215.75 306.035156 216.835938 C 294.765625 220.089844 287.589844 221.757812 278.367188 223.257812 C 268.03125 224.914062 259.511719 225.402344 243.121094 225.238281 C 236.792969 225.167969 235.28125 225.226562 235.226562 225.613281 C 235.09375 226.617188 244.175781 227.605469 253.269531 227.566406 C 268.09375 227.515625 279.890625 226.015625 295.511719 222.152344 C 302.816406 220.347656 316.714844 215.050781 315.910156 214.398438 C 315.808594 214.320312 315.082031 214.394531 314.277344 214.546875 Z M 314.277344 214.546875"
           fill="#51368d"
           id="path17" />
      </g>
    </g>
  </g>
  <g
     clip-path="url(#12b6c721f2)"
     id="g21">
    <path
       fill-rule="nonzero"
       fill-opacity="1"
       d="M 98.914062 143.027344 L 97.34375 143.046875 C 88.496094 143.257812 80.574219 144 73.574219 145.277344 C 65.050781 146.859375 57.121094 149.09375 49.785156 151.980469 C 42.933594 154.523438 35.777344 158.25 28.324219 163.171875 C 23.425781 166.324219 19.050781 170.328125 15.203125 175.171875 C 25.132812 168.078125 30.390625 164.429688 30.980469 164.222656 C 34.984375 161.734375 39.257812 159.492188 43.792969 157.503906 C 52.929688 153.457031 63.019531 150.546875 74.066406 148.769531 C 85.296875 146.96875 97.28125 146.585938 110.019531 147.625 C 120.039062 148.335938 132.164062 150.777344 146.394531 154.949219 C 147.296875 155.183594 148.332031 155.132812 149.5 154.804688 C 151.5625 153.230469 151.558594 151.867188 149.5 150.714844 C 147.910156 150.097656 143.410156 148.902344 135.988281 147.128906 C 122.761719 144.183594 110.402344 142.816406 98.914062 143.027344"
       fill="#a62746"
       id="path20" />
  </g>
  <path
     id="path21"
     clip-path="url(#clipPath196)"
     d="M 96.335938 152.85937 L 96 152.86328 C 88.464844 153.07422 82.210938 153.57421 77.230469 154.36718 C 75.757812 154.58983 74.636719 154.87499 73.863281 155.22265 L 72.035156 156.41797 L 72.464844 156.6289 C 72.828125 156.74999 73.332031 156.79297 73.984375 156.75 C 77.789062 156.22266 81.675781 155.88281 85.640625 155.73437 C 89.660156 155.57031 93.1875 155.52734 96.222656 155.60547 C 103.42969 155.82422 109.77344 156.51172 115.26172 157.67578 C 123.21875 159.28516 131.35937 161.57031 139.69141 164.53125 C 143.19531 165.80469 146.53906 167.16797 149.71875 168.625 C 149.875 168.69584 150.03642 168.77567 150.19336 168.84765 L 161.30664 168.84765 C 155.52357 165.87276 149.2483 163.22358 142.46484 160.91015 C 134.25781 158.17968 125.46484 155.98827 116.08594 154.33593 C 110.11719 153.30468 103.53516 152.80859 96.335938 152.85937 z M 153.3418 170.34765 C 155.92684 171.62054 158.59269 173.02873 161.35156 174.59765 C 161.8125 174.81249 162.25 174.91406 162.66406 174.90625 C 163.90234 174.78516 164.75781 174.19531 165.22656 173.14453 C 165.69922 172.08984 165.50781 171.25391 164.64844 170.625 C 164.47947 170.53113 164.30465 170.44092 164.13477 170.34765 L 153.3418 170.34765 z "
     style="fill:#a62746;fill-opacity:1" />
  <path
     stroke-miterlimit="4"
     stroke-opacity="1"
     stroke-width="5.199997"
     stroke="#ffffff"
     d="M 251.604364 64.652864 C 252.720078 64.652864 253.965779 64.479549 255.346881 64.127503 C 256.7334 63.780874 257.989932 63.201352 259.121895 62.405187 C 260.259273 61.592774 260.990445 60.487892 261.320826 59.101374 C 261.591631 57.806929 261.331658 56.76704 260.54091 55.987123 C 259.760993 55.196374 258.623614 54.546444 257.123358 54.042747 C 255.623102 53.533635 253.944114 53.057019 252.097228 52.618316 C 250.244926 52.179613 248.425121 51.648836 246.643228 51.025986 C 244.872167 50.408552 243.296085 49.590723 241.904151 48.572498 C 240.517632 47.548858 239.51024 46.227332 238.876557 44.613338 C 238.253707 42.999344 238.248291 40.946646 238.860309 38.44983 C 239.41275 35.990926 240.403894 33.878652 241.839158 32.102175 C 243.269005 30.320282 244.969656 28.84169 246.93028 27.671815 C 248.89632 26.485691 250.981514 25.602869 253.196694 25.028764 C 255.41729 24.454658 257.594558 24.167606 259.728496 24.167606 C 262.956485 24.167606 265.859508 24.676718 268.448398 25.689526 C 271.042704 26.707751 272.970832 28.310913 274.23278 30.515261 C 275.510977 32.70336 275.781781 35.600968 275.045193 39.213498 L 264.992934 39.213498 C 265.274571 36.765426 264.814203 35.064775 263.606415 34.116959 C 262.40946 33.169144 260.513829 32.697944 257.919523 32.697944 C 256.950043 32.697944 255.883074 32.860427 254.718615 33.185392 C 253.570404 33.504941 252.519683 34.024886 251.571868 34.745226 C 250.624052 35.454733 250.033699 36.407965 249.811639 37.60492 C 249.530003 38.812708 249.795391 39.765939 250.607804 40.464615 C 251.420217 41.152458 252.584676 41.731979 254.112013 42.192347 C 255.633934 42.65813 257.307505 43.096833 259.138143 43.513872 C 260.963364 43.920079 262.777754 44.429191 264.570479 45.035793 C 266.374036 45.636979 267.971782 46.454808 269.358301 47.489281 C 270.750236 48.52917 271.74138 49.883192 272.337149 51.551347 C 272.938335 53.214086 272.938335 55.337192 272.337149 57.936915 C 271.698051 60.69912 270.582337 63.049702 269.006255 64.994077 C 267.43559 66.933037 265.572455 68.498286 263.416852 69.678994 C 261.277498 70.854285 258.981076 71.715443 256.527588 72.2733 C 254.079517 72.836573 251.653109 73.118209 249.253782 73.118209 C 246.664892 73.118209 244.254733 72.787828 242.007056 72.137898 C 239.75938 71.493383 237.863749 70.485991 236.320164 69.121136 C 234.776579 67.756282 233.704193 66.023134 233.103008 63.927108 C 232.507238 61.814834 232.528902 59.328849 233.173417 56.463739 L 243.702292 56.463739 C 243.19318 59.280104 243.745621 61.354466 245.359615 62.675992 C 246.984441 63.992101 249.064219 64.652864 251.604364 64.652864 Z M 304.09709 34.290274 L 295.366356 72.002495 L 284.956635 72.002495 L 293.687368 34.290274 L 280.250054 34.290274 L 282.400241 24.860865 L 319.690007 24.860865 L 317.53982 34.290274 Z M 355.192464 48.355855 C 355.744905 45.907783 355.614919 43.633026 354.802506 41.531584 C 354.000925 39.424726 352.684816 37.724074 350.859594 36.440461 C 349.028956 35.1406 346.916682 34.490669 344.511939 34.490669 C 342.708381 34.490669 340.877744 34.875212 339.025442 35.644296 C 337.189388 36.397132 335.467072 37.426189 333.86391 38.720634 C 332.27158 40.020495 330.906726 41.504503 329.769347 43.172659 C 328.642801 44.835398 327.8683 46.557714 327.451261 48.355855 C 326.89882 50.755182 327.028807 53.024523 327.84122 55.158461 C 328.653633 57.281568 329.953494 58.998468 331.751635 60.319993 C 333.555193 61.641519 335.662051 62.302282 338.061378 62.302282 C 339.91368 62.302282 341.749734 61.917739 343.564123 61.148655 C 345.389345 60.384986 347.100829 59.35593 348.693159 58.072317 C 350.296321 56.772456 351.672007 55.283031 352.820218 53.598628 C 353.984677 51.908809 354.775426 50.159412 355.192464 48.355855 Z M 365.515528 48.420848 C 364.784356 51.659669 363.430334 54.746839 361.453462 57.682359 C 359.492838 60.612462 357.120592 63.201352 354.347555 65.449029 C 351.579934 67.696705 348.590253 69.467766 345.373097 70.762211 C 342.161357 72.05124 338.938784 72.695755 335.710796 72.695755 C 332.428646 72.695755 329.476878 72.05124 326.855492 70.762211 C 324.250353 69.467766 322.078502 67.696705 320.339938 65.449029 C 318.612206 63.201352 317.436915 60.612462 316.803232 57.682359 C 316.180382 54.746839 316.245375 51.659669 316.987379 48.420848 C 317.767296 45.149531 319.137566 42.056944 321.103606 39.148505 C 323.075062 36.223818 325.447309 33.64576 328.209514 31.408915 C 330.987967 29.166655 333.983064 27.40101 337.20022 26.111981 C 340.417376 24.817536 343.639949 24.167606 346.862521 24.167606 C 350.150086 24.167606 353.091022 24.817536 355.701577 26.111981 C 358.317547 27.40101 360.489399 29.166655 362.217131 31.408915 C 363.955695 33.64576 365.130986 36.223818 365.753836 39.148505 C 366.387518 42.056944 366.306277 45.149531 365.515528 48.420848 Z M 380.983876 55.158461 L 377.089708 72.002495 L 366.701652 72.002495 L 377.582572 24.860865 L 395.255268 24.860865 C 397.806245 24.860865 400.021425 25.499963 401.906224 26.772744 C 403.801855 28.034692 405.166709 29.800337 406.000786 32.069678 C 406.834864 34.328187 406.905273 36.960406 406.206598 39.977167 C 405.562083 42.603969 404.522194 44.938303 403.092347 46.985585 C 401.657084 49.016618 399.983513 50.679357 398.066217 51.973802 C 396.143506 53.262831 394.150386 54.161901 392.070608 54.665597 L 401.56501 72.002495 L 388.3985 72.002495 L 381.054285 55.158461 Z M 391.648153 33.033742 L 386.112911 33.033742 L 382.84701 46.96392 L 388.3985 46.96392 C 389.920421 46.96392 391.480254 46.368151 393.072584 45.171195 C 394.67033 43.963407 395.748132 42.230259 396.305989 39.977167 C 396.766356 37.799899 396.48472 36.099248 395.455663 34.880628 C 394.442855 33.651176 393.170074 33.033742 391.648153 33.033742 Z M 463.682124 72.002495 L 452.243346 72.002495 L 454.187722 39.484303 L 437.484506 72.002495 L 427.291429 72.002495 L 425.547448 39.484303 L 412.51634 72.002495 L 401.072146 72.002495 L 421.117088 24.860865 L 433.454937 24.860865 L 435.670117 57.936915 L 453.072008 24.860865 L 465.426105 24.860865 Z M 463.682124 72.002495"
     stroke-linejoin="miter"
     fill="none"
     transform="matrix(0.721231, 0, 0, 0.721231, 0.0000045, 144.366451)"
     stroke-linecap="butt"
     id="path23" />
  <path
     id="path22"
     style="fill:#ffffff;stroke-width:0.721231"
     d="M 63.566406 159.91992 L 63.566406 159.92187 C 61.859178 159.92187 60.129215 160.15301 58.386719 160.60351 L 58.384766 160.60351 C 56.614895 161.0622 54.940396 161.77147 53.375 162.71484 C 51.775366 163.66932 50.372914 164.88755 49.205078 166.34179 C 48.586984 167.10683 48.069996 167.94565 47.648438 168.84765 L 52.015625 168.84765 C 52.053176 168.79904 52.084437 168.74505 52.123047 168.69726 L 52.125 168.69531 L 52.126953 168.6914 C 53.020865 167.5774 54.070106 166.66558 55.296875 165.93359 L 55.300781 165.93164 L 55.304688 165.92968 C 56.572893 165.16457 57.903799 164.60105 59.326172 164.23242 L 59.326172 164.23437 C 60.786803 163.85674 62.195507 163.67187 63.566406 163.67187 C 65.697363 163.67187 67.550298 164.00644 69.167969 164.64062 C 70.713783 165.24606 71.704639 166.09132 72.400391 167.30664 L 72.404297 167.3125 L 72.408203 167.32031 C 72.644817 167.72535 72.7894 168.24338 72.863281 168.84765 L 76.716797 168.84765 C 76.588787 167.60762 76.247876 166.4613 75.650391 165.43554 C 74.52561 163.47428 72.737025 162.00888 70.535156 161.14648 C 68.426264 160.31972 66.0917 159.91992 63.566406 159.91992 z M 81.171875 160.42187 L 79.226562 168.84765 L 83.076172 168.84765 L 84.15625 164.17187 L 95.410156 164.17187 C 96.932228 164.17187 98.123669 164.53186 99.158203 165.23047 L 99.162109 165.23242 L 99.167969 165.23632 C 100.20914 165.92945 100.91868 166.83197 101.40039 168.14257 L 101.40039 168.14453 C 101.48195 168.36538 101.53767 168.60746 101.59375 168.84765 L 105.36719 168.84765 C 105.28406 168.15952 105.15545 167.48541 104.91992 166.84765 C 104.19862 164.88628 102.93987 163.24398 101.24805 162.11718 C 99.565654 160.98389 97.55615 160.42187 95.410156 160.42187 L 81.171875 160.42187 z M 108.07422 160.42187 L 106.12891 168.84765 L 109.97852 168.84765 L 111.05859 164.17187 L 114.69922 164.17187 L 113.61719 168.84765 L 117.4668 168.84765 L 119.41797 160.42187 L 108.07422 160.42187 z M 132.52539 160.42187 L 130.58008 168.84765 L 134.42773 168.84765 L 135.50781 164.17187 L 139.1543 164.17187 L 138.07422 168.84765 L 154.89258 168.84765 L 155.26953 167.22265 L 145.57031 167.22265 L 146.26562 164.17187 L 169.3125 164.17187 L 168.61719 167.22265 L 158.92773 167.22265 L 158.55078 168.84765 L 172.09375 168.84765 L 174.01562 160.42187 L 143.86914 160.42187 L 143.27344 160.42187 L 132.52539 160.42187 z M 62.257812 166.07226 C 61.350921 166.07226 60.418552 166.22196 59.453125 166.49218 L 59.451172 166.49414 C 58.399862 166.7856 57.422288 167.27302 56.558594 167.92773 C 56.210002 168.18821 55.913626 168.50738 55.644531 168.84765 L 68.5625 168.84765 C 68.319548 168.33404 67.994253 167.86997 67.525391 167.5 C 66.144175 166.40758 64.358135 166.07226 62.257812 166.07226 z M 87.330078 166.3164 L 86.736328 168.84765 L 97.371094 168.84765 C 97.257456 168.66701 97.133852 168.49063 96.994141 168.32422 C 95.969272 167.08437 94.41039 166.3164 92.808594 166.3164 L 87.330078 166.3164 z M 47.0625 170.34765 C 46.921028 170.77794 46.790562 171.216 46.6875 171.66797 C 46.196683 173.69526 46.140515 175.5615 46.779297 177.21679 L 46.779297 177.2207 L 46.779297 177.22461 C 47.013055 177.82513 47.328584 178.3806 47.6875 178.90429 L 53.548828 178.88476 C 52.927141 178.59007 52.33991 178.26687 51.822266 177.88672 C 51.094068 177.34826 50.606383 176.71267 50.275391 175.86328 C 50.01851 175.19367 49.953577 174.10681 50.333984 172.54101 L 50.335938 172.52734 L 50.341797 172.51172 C 50.522761 171.71406 50.773737 171.00013 51.087891 170.34765 L 47.0625 170.34765 z M 54.806641 170.34765 C 54.718752 170.59272 54.636712 170.83898 54.585938 171.09375 C 54.288173 172.42527 54.698138 174.05601 55.761719 174.9707 L 55.767578 174.97656 L 55.773438 174.98047 C 56.639466 175.7137 57.706606 176.20883 58.964844 176.58984 L 58.966797 176.58984 L 58.96875 176.59179 C 60.120554 176.94293 61.368156 177.26758 62.71875 177.57617 L 62.724609 177.57812 L 62.730469 177.57812 C 63.982342 177.85591 65.221931 178.20572 66.458984 178.62304 L 66.460938 178.62304 L 66.466797 178.62304 C 66.650696 178.68434 66.803283 178.77012 66.978516 178.83789 L 73.314453 178.81445 C 72.843331 178.17062 72.280673 177.5982 71.636719 177.11523 L 71.634766 177.11328 L 71.632812 177.11328 C 70.460566 176.23861 69.12541 175.55807 67.658203 175.06836 C 67.013985 174.85103 66.353834 174.70574 65.703125 174.52148 L 76.144531 174.52148 L 76.451172 173.01953 C 76.639458 172.0961 76.739918 171.20649 76.763672 170.34765 L 72.902344 170.34765 C 72.896672 170.49096 72.899202 170.62465 72.888672 170.77343 L 69.099609 170.77343 C 69.080057 170.62827 69.045311 170.49001 69.019531 170.34765 L 65.029297 170.34765 C 65.084295 170.37998 65.159969 170.41228 65.199219 170.44336 L 65.201172 170.44336 L 65.203125 170.44531 C 65.398777 170.59954 65.666979 170.99914 65.501953 172.43359 L 65.273438 174.40429 C 64.695407 174.24759 64.127313 174.04958 63.542969 173.91992 L 63.554688 173.91992 C 62.274017 173.62731 61.108816 173.32223 60.058594 173.00195 L 60.056641 173.00195 L 60.054688 173.00195 C 59.125292 172.72081 58.513798 172.38251 58.207031 172.125 C 58.184784 172.10801 58.171085 172.11003 58.162109 172.11718 C 58.173212 172.11276 58.195205 172.09041 58.236328 171.91406 L 58.244141 171.875 L 58.251953 171.83789 C 58.339953 171.37443 58.465811 171.18046 58.802734 170.92968 L 58.810547 170.92382 L 58.818359 170.91797 C 59.133817 170.67822 59.468627 170.49919 59.818359 170.34765 L 54.806641 170.34765 z M 78.880859 170.34765 L 76.927734 178.80273 L 80.78125 178.78906 L 82.730469 170.34765 L 78.880859 170.34765 z M 86.384766 170.34765 L 84.410156 178.77539 L 94.511719 178.74023 C 94.661009 178.63961 94.815025 178.55337 94.960938 178.44336 L 94.960938 178.4414 C 96.482287 177.2946 97.506695 175.60265 97.986328 173.64648 L 97.992188 173.61914 L 97.998047 173.59179 C 98.23508 172.4838 98.247265 171.36749 97.994141 170.34765 L 93.742188 170.34765 C 93.858019 170.44105 93.974825 170.55388 94.107422 170.71484 L 94.115234 170.72461 L 94.123047 170.73242 C 94.416134 171.0795 94.584194 171.58294 94.333984 172.77929 C 94.016023 174.05387 93.486887 174.85679 92.703125 175.44726 C 91.791403 176.13494 91.073123 176.36132 90.464844 176.36132 L 88.828125 176.36132 L 90.236328 170.34765 L 86.384766 170.34765 z M 101.76953 170.34765 C 101.77515 171.07696 101.69065 171.8763 101.48242 172.77539 C 101.00749 174.82526 100.19645 176.50158 99.042969 177.89843 C 98.798851 178.19405 98.543899 178.46209 98.287109 178.72656 L 103.0293 178.70898 C 103.79184 177.44548 104.3772 176.05432 104.80859 174.5664 L 103.85156 178.70703 L 107.70508 178.69336 L 109.63281 170.34765 L 105.7832 170.34765 L 105.23242 172.73047 C 105.37232 171.91734 105.43404 171.12516 105.44531 170.34765 L 101.76953 170.34765 z M 113.26953 170.34765 L 111.33984 178.67968 L 115.19336 178.66797 L 117.11914 170.34765 L 113.26953 170.34765 z M 130.23242 170.34765 L 128.32227 178.62109 L 132.17578 178.60742 L 134.08203 170.34765 L 130.23242 170.34765 z M 137.72852 170.34765 L 135.82422 178.59375 L 139.67578 178.58007 L 141.43164 170.97265 L 150.55078 170.97265 L 148.79688 178.54882 L 152.65039 178.53515 L 154.54688 170.34765 L 137.72852 170.34765 z M 158.20508 170.34765 L 156.3125 178.52148 L 160.16406 178.50781 L 161.9082 170.97265 L 171.60938 170.97265 L 171.75195 170.34765 L 158.20508 170.34765 z M 159.81641 180.00976 L 155.96484 180.02343 L 154.1582 187.82422 L 158.01172 187.80468 L 159.81641 180.00976 z M 152.30273 180.03711 L 148.44922 180.04882 L 146.64062 187.85937 L 150.49609 187.83984 L 152.30273 180.03711 z M 139.32812 180.08203 L 135.47656 180.0957 L 133.66992 187.91992 L 137.52344 187.90234 L 139.32812 180.08203 z M 131.82812 180.10937 L 127.97461 180.12109 L 126.16602 187.95507 L 130.02148 187.9375 L 131.82812 180.10937 z M 114.8457 180.16797 L 110.99219 180.18164 L 109.17383 188.03515 L 125.24219 187.95898 L 125.32031 187.62109 L 113.12109 187.62109 L 114.8457 180.16797 z M 107.35742 180.19531 L 103.50586 180.20898 L 101.68945 188.07031 L 105.54297 188.05273 L 107.35742 180.19531 z M 101.98633 180.21289 L 96.517578 180.23242 C 96.0203 180.58024 95.50968 180.90081 94.966797 181.16601 C 93.413114 181.919 91.906012 182.27343 90.367188 182.27343 L 83.626953 182.27343 L 82.265625 188.16211 L 86.117188 188.14453 L 86.607422 186.02343 L 90.367188 186.02343 C 92.492424 186.02343 94.5947 185.51654 96.603516 184.54297 L 96.605469 184.54101 L 96.607422 184.54101 C 98.64143 183.54848 100.4285 182.10976 101.93359 180.28711 C 101.95294 180.26368 101.96716 180.23645 101.98633 180.21289 z M 80.433594 180.28906 L 76.582031 180.30273 L 74.757812 188.19726 L 78.611328 188.17968 L 80.433594 180.28906 z M 74.160156 180.3125 L 69.634766 180.32812 C 70.21156 180.82424 70.619008 181.40431 70.894531 182.17578 L 70.894531 182.17773 L 70.896484 182.18164 C 71.156523 182.90085 71.215132 184.07185 70.832031 185.72851 C 70.616407 186.65123 70.32265 187.47426 69.958984 188.2207 L 74.019531 188.20117 C 74.200663 187.67546 74.356035 187.13262 74.486328 186.57422 L 74.486328 186.57226 C 74.970165 184.47999 75.029997 182.58874 74.423828 180.91015 C 74.423547 180.90936 74.424117 180.90725 74.423828 180.90625 C 74.350232 180.70077 74.248799 180.50997 74.160156 180.3125 z M 58.03125 180.36914 L 49.001953 180.40039 C 49.196334 180.57416 49.386454 180.75227 49.597656 180.9082 L 49.599609 180.9082 L 49.601562 180.91015 C 50.763442 181.7634 52.074531 182.43702 53.509766 182.9375 C 54.857082 183.40845 56.23156 183.80963 57.625 184.14062 L 57.626953 184.14062 C 58.91299 184.44521 60.063009 184.77326 61.085938 185.11914 L 61.089844 185.11914 L 61.089844 185.12109 C 61.98157 185.42048 62.535174 185.77538 62.818359 186.0625 L 62.826172 186.07226 L 62.835938 186.08007 C 62.952303 186.19484 62.96218 186.16411 62.876953 186.57617 C 62.731059 187.16824 62.507679 187.51017 62.039062 187.84375 C 61.809452 188.00575 61.561588 188.13305 61.314453 188.26172 L 66.267578 188.23828 C 66.372617 187.97256 66.472641 187.70453 66.539062 187.42578 L 66.544922 187.40039 L 66.550781 187.375 C 66.836014 186.01158 66.485426 184.4217 65.472656 183.41797 C 64.633562 182.57239 63.551211 181.9913 62.287109 181.5664 L 62.283203 181.56445 C 61.135749 181.1765 59.875901 180.81799 58.492188 180.49023 L 58.490234 180.49023 C 58.335931 180.45357 58.184931 180.40765 58.03125 180.36914 z M 42.908203 183.21289 L 42.580078 184.67968 C 42.294039 185.96201 42.172604 187.18355 42.199219 188.35156 L 45.994141 188.33398 C 45.993393 187.89901 46.006025 187.4495 46.056641 186.96484 L 50.078125 186.96484 C 50.117042 187.43106 50.209246 187.87793 50.330078 188.3125 L 54.658203 188.29297 C 54.569467 188.23168 54.472465 188.18096 54.388672 188.11328 C 53.808321 187.63701 53.556676 187.05589 53.849609 185.41797 L 54.244141 183.21289 L 42.908203 183.21289 z M 157.66406 189.30664 L 153.81055 189.32422 L 152.63086 194.42187 L 148.97266 194.42187 L 150.14844 189.34179 L 146.29297 189.36132 L 144.25391 198.17187 L 155.61133 198.17187 L 157.66406 189.30664 z M 137.17578 189.40429 L 133.32227 189.42187 L 132.16797 194.42187 L 128.52344 194.42187 L 129.67383 189.43945 L 125.81836 189.45703 L 123.80664 198.17187 L 135.15234 198.17187 L 137.17578 189.40429 z M 124.90039 189.46093 L 108.82617 189.53711 L 108.40234 191.37109 L 120.61719 191.37109 L 119.92188 194.42187 L 104.07227 194.42187 L 105.19531 189.55468 L 101.34375 189.57226 L 99.357422 198.17187 L 122.91406 198.17187 L 124.90039 189.46093 z M 85.769531 189.64648 L 81.917969 189.66406 L 80.818359 194.41992 L 77.169922 194.41992 L 78.263672 189.68164 L 74.412109 189.69922 L 72.455078 198.17187 L 83.798828 198.17187 L 85.769531 189.64648 z M 73.408203 189.70507 L 69.037109 189.72461 C 68.956164 189.83362 68.884101 189.9518 68.798828 190.05664 L 68.796875 190.05859 L 68.794922 190.0625 C 67.813028 191.27882 66.667726 192.23978 65.326172 192.97461 L 65.324219 192.97461 C 63.933503 193.73669 62.447506 194.29621 60.841797 194.66211 L 60.839844 194.66211 L 60.835938 194.66211 C 59.201068 195.03827 57.595778 195.22265 56.007812 195.22265 C 54.3044 195.22265 52.741159 195.00759 51.306641 194.59179 L 51.304688 194.58984 L 51.302734 194.58984 C 49.91078 194.1907 48.81135 193.59553 47.925781 192.8125 L 47.923828 192.81054 C 47.076107 192.06359 46.510277 191.16326 46.167969 189.96093 C 46.15664 189.92077 46.152812 189.87332 46.142578 189.83203 L 42.332031 189.85156 C 42.392827 190.23242 42.455398 190.61264 42.558594 190.97851 L 42.560547 190.98047 L 42.560547 190.98242 C 43.077333 192.80057 44.057107 194.40029 45.441406 195.62109 L 45.443359 195.62109 L 45.445312 195.62304 C 46.784698 196.80648 48.416588 197.66113 50.263672 198.1914 L 50.265625 198.1914 L 50.267578 198.19336 C 52.066226 198.71424 53.986232 198.97265 56.007812 198.97265 C 57.888599 198.97265 59.781353 198.75274 61.677734 198.3164 C 63.602147 197.87759 65.426773 197.19446 67.128906 196.26172 C 68.894679 195.29454 70.433928 193.99993 71.708984 192.42187 L 71.710938 192.41797 C 72.38039 191.59423 72.945261 190.68618 73.408203 189.70507 z M 65.394531 189.74218 L 50.992188 189.81054 C 51.270722 190.25693 51.593083 190.67515 52.013672 191.01953 L 52.019531 191.02343 L 52.023438 191.02734 C 53.564934 192.27596 55.549804 192.86914 57.707031 192.86914 C 58.703668 192.86914 59.74978 192.71702 60.859375 192.43359 C 62.080378 192.12896 63.211233 191.61139 64.208984 190.90625 L 64.208984 190.90429 L 64.212891 190.90234 C 64.668135 190.57871 65.052643 190.17681 65.394531 189.74218 z " />
  <path
     id="path24"
     style="color:#000000;font-style:normal;font-variant:normal;font-weight:normal;font-stretch:normal;font-size:medium;line-height:normal;font-family:sans-serif;font-variant-ligatures:normal;font-variant-position:normal;font-variant-caps:normal;font-variant-numeric:normal;font-variant-alternates:normal;font-variant-east-asian:normal;font-feature-settings:normal;font-variation-settings:normal;text-indent:0;text-align:start;text-decoration-line:none;text-decoration-style:solid;text-decoration-color:#000000;letter-spacing:normal;word-spacing:normal;text-transform:none;writing-mode:lr-tb;direction:ltr;text-orientation:mixed;dominant-baseline:auto;baseline-shift:baseline;text-anchor:start;white-space:normal;shape-padding:0;shape-margin:0;inline-size:0;clip-rule:nonzero;display:inline;overflow:visible;visibility:visible;isolation:auto;mix-blend-mode:normal;color-interpolation:sRGB;color-interpolation-filters:linearRGB;solid-color:#000000;solid-opacity:1;vector-effect:none;fill:#0f1951;fill-opacity:1;fill-rule:nonzero;stroke:none;stroke-linecap:butt;stroke-linejoin:miter;stroke-miterlimit:4;stroke-dasharray:none;stroke-dashoffset:0;stroke-opacity:1;-inkscape-stroke:none;color-rendering:auto;image-rendering:auto;shape-rendering:auto;text-rendering:auto;enable-background:accumulate;stop-color:#000000"
     d="M 63.560547 161.79492 C 62.029297 161.79492 60.458985 162.00586 58.857422 162.41992 C 57.263672 162.83789 55.755859 163.47461 54.341797 164.32617 C 52.923828 165.16992 51.693359 166.24023 50.654297 167.52929 C 50.321503 167.94276 50.024573 168.384 49.757812 168.84765 L 58.59375 168.84765 C 59.027103 168.61713 59.482524 168.42843 59.966797 168.29492 C 60.798828 168.06836 61.564453 167.95117 62.263672 167.95117 C 63.997002 167.95117 65.291013 168.25271 66.162109 168.84765 L 74.820312 168.84765 C 74.702243 167.92147 74.444032 167.09263 74.029297 166.37304 C 73.111328 164.79101 71.720703 163.63476 69.857422 162.90429 C 67.990235 162.16601 65.892578 161.79492 63.560547 161.79492 z M 49.042969 170.34765 C 48.828903 170.90117 48.650663 171.48144 48.513672 172.09179 C 48.076177 173.89648 48.080078 175.38086 48.529297 176.54492 C 48.894991 177.47947 49.438518 178.27414 50.152344 178.93359 L 70.738281 178.80273 C 70.664252 178.74189 70.591169 178.68117 70.513672 178.62304 C 69.513672 177.87304 68.361328 177.28711 67.060547 176.85742 C 65.755859 176.41992 64.443359 176.05273 63.123047 175.74804 C 61.810547 175.44726 60.599609 175.13086 59.498047 174.79492 C 58.404297 174.46289 57.564453 174.04492 56.982422 173.54492 C 56.396497 173.04492 56.205078 172.36523 56.404297 171.49804 C 56.485158 171.07256 56.630866 170.6901 56.839844 170.34765 L 49.042969 170.34765 z M 67.234375 170.34765 C 67.415745 170.9682 67.458377 171.73008 67.357422 172.63867 L 74.607422 172.63867 C 74.774578 171.82255 74.86123 171.06346 74.884766 170.34765 L 67.234375 170.34765 z M 72.054688 180.29492 L 52.376953 180.41992 C 52.93174 180.70311 53.517853 180.95415 54.138672 181.16992 C 55.419922 181.61914 56.724609 182.00586 58.060547 182.32617 C 59.392578 182.63867 60.599609 182.97851 61.685547 183.34179 C 62.767578 183.70898 63.591797 184.17773 64.154297 184.74804 C 64.724597 185.31054 64.912109 186.06054 64.716797 186.99804 C 64.600513 187.47818 64.415578 187.90871 64.166016 188.29297 L 72.001953 188.24218 C 72.265494 187.58182 72.483262 186.88078 72.654297 186.13867 C 73.091797 184.27539 73.091797 182.74414 72.654297 181.54492 C 72.493477 181.09755 72.294711 180.6806 72.054688 180.29492 z M 44.404297 185.09179 C 44.13678 186.29563 44.02416 187.40292 44.056641 188.41992 L 52.277344 188.36718 C 51.86748 187.5004 51.775146 186.4113 52.013672 185.09179 L 44.404297 185.09179 z M 71.277344 189.74804 L 62.453125 189.80273 C 61.820226 190.16601 61.13818 190.43957 60.404297 190.62304 C 59.404297 190.87304 58.505859 190.99804 57.716797 190.99804 C 56.074993 190.99804 54.704115 190.61813 53.599609 189.85937 L 44.220703 189.91797 C 44.259707 190.11035 44.305326 190.29819 44.357422 190.48242 C 44.794922 191.99414 45.568359 193.24414 46.685547 194.23242 C 47.798828 195.21289 49.162109 195.93164 50.779297 196.38867 C 52.404297 196.85742 54.146485 197.09179 56.013672 197.09179 C 57.740235 197.09179 59.486328 196.88867 61.248047 196.48242 C 63.017578 196.08789 64.677735 195.46679 66.232422 194.62304 C 67.783203 193.77148 69.126953 192.64648 70.263672 191.24804 C 70.639368 190.78166 70.975548 190.27973 71.277344 189.74804 z " />
  <path
     id="path26"
     style="fill:#0f1951;fill-opacity:1"
     d="M 82.654297 162.29492 L 81.142578 168.84765 L 88.660156 168.84765 L 88.810547 168.20117 L 92.810547 168.20117 C 93.575768 168.20117 94.25117 168.42049 94.837891 168.84765 L 103.51367 168.84765 C 103.43125 168.37984 103.31272 167.92908 103.1543 167.49804 C 102.56055 165.86523 101.57617 164.58789 100.20117 163.66992 C 98.833986 162.75586 97.236328 162.29492 95.404297 162.29492 L 82.654297 162.29492 z M 80.796875 170.34765 L 78.882812 178.64257 L 100.94141 178.50195 C 102.04969 176.99225 102.84175 175.22457 103.31055 173.20117 C 103.5437 172.19205 103.65181 171.24256 103.64453 170.34765 L 96.042969 170.34765 C 96.354182 171.11941 96.393619 172.06932 96.154297 173.20117 C 95.755859 174.82617 94.982422 176.07617 93.826172 176.95117 C 92.677735 177.81836 91.560547 178.24804 90.466797 178.24804 L 86.466797 178.24804 L 88.310547 170.34765 L 80.796875 170.34765 z M 99.658203 180.00976 L 78.537109 180.14453 L 76.707031 188.07422 L 84.212891 188.02734 L 85.107422 184.13867 L 90.357422 184.13867 C 92.189453 184.13867 93.998047 183.70898 95.779297 182.84179 C 97.215572 182.14874 98.50794 181.2013 99.658203 180.00976 z M 83.867188 189.52929 L 76.361328 189.57617 L 74.810547 196.29492 L 82.310547 196.29492 L 83.867188 189.52929 z " />
  <path
     id="path29"
     style="fill:#0f1951;fill-opacity:1"
     d="M 109.55469 162.29492 L 108.04297 168.84765 L 115.53711 168.84765 L 117.05469 162.29492 L 109.55469 162.29492 z M 107.69727 170.34765 L 105.78711 178.6289 L 113.28516 178.58203 L 115.19141 170.34765 L 107.69727 170.34765 z M 112.9375 180.08398 L 105.43945 180.13281 L 103.60352 188.09375 L 111.09375 188.04687 L 112.9375 180.08398 z M 118.76758 189.49804 L 103.25586 189.5957 L 101.71094 196.29492 L 121.41406 196.29492 L 122.96094 189.49804 L 118.76758 189.49804 z " />
  <path
     id="path32"
     style="fill:#0f1951;fill-opacity:1"
     d="M 134.00586 162.29492 L 132.49414 168.84765 L 139.99414 168.84765 L 141.50586 162.29492 L 134.00586 162.29492 z M 132.14844 170.34765 L 130.24023 178.62109 L 137.75 178.57226 L 139.64844 170.34765 L 132.14844 170.34765 z M 137.4043 180.07617 L 129.89258 180.12304 L 128.05664 188.08398 L 135.56836 188.03711 L 137.4043 180.07617 z M 135.2207 189.53906 L 127.70898 189.58593 L 126.16211 196.29492 L 133.66211 196.29492 L 135.2207 189.53906 z " />
  <path
     id="path35"
     style="fill:#0f1951;fill-opacity:1"
     d="M 144.75586 162.29492 L 143.26367 168.84765 L 170.16992 168.84765 L 171.66211 162.29492 L 144.75586 162.29492 z M 152.62109 170.34765 L 150.70508 178.62304 L 158.2168 178.57617 L 160.12109 170.34765 L 152.62109 170.34765 z M 157.86914 180.07812 L 150.35742 180.12695 L 148.51562 188.08203 L 156.02734 188.03515 L 157.86914 180.07812 z M 155.67969 189.53711 L 148.16797 189.58398 L 146.61523 196.29492 L 154.11523 196.29492 L 155.67969 189.53711 z " />
  <g
     fill-opacity="1"
     fill="#d3021b"
     id="g41">
    <g
       transform="translate(164.068766, 196.295075)"
       id="g40">
      <g
         id="g39">
        <path
           d="M 17.40625 -5.296875 C 18.195312 -5.296875 19.09375 -5.421875 20.09375 -5.671875 C 21.09375 -5.921875 22 -6.335938 22.8125 -6.921875 C 23.632812 -7.503906 24.164062 -8.296875 24.40625 -9.296875 C 24.601562 -10.234375 24.414062 -10.984375 23.84375 -11.546875 C 23.28125 -12.117188 22.457031 -12.585938 21.375 -12.953125 C 20.289062 -13.316406 19.082031 -13.65625 17.75 -13.96875 C 16.414062 -14.289062 15.109375 -14.675781 13.828125 -15.125 C 12.546875 -15.570312 11.40625 -16.160156 10.40625 -16.890625 C 9.40625 -17.628906 8.675781 -18.582031 8.21875 -19.75 C 7.769531 -20.914062 7.765625 -22.398438 8.203125 -24.203125 C 8.597656 -25.960938 9.3125 -27.484375 10.34375 -28.765625 C 11.382812 -30.054688 12.613281 -31.125 14.03125 -31.96875 C 15.445312 -32.820312 16.953125 -33.457031 18.546875 -33.875 C 20.148438 -34.289062 21.71875 -34.5 23.25 -34.5 C 25.582031 -34.5 27.679688 -34.128906 29.546875 -33.390625 C 31.410156 -32.660156 32.800781 -31.503906 33.71875 -29.921875 C 34.632812 -28.335938 34.828125 -26.25 34.296875 -23.65625 L 27.046875 -23.65625 C 27.242188 -25.414062 26.910156 -26.632812 26.046875 -27.3125 C 25.179688 -28 23.816406 -28.34375 21.953125 -28.34375 C 21.253906 -28.34375 20.488281 -28.226562 19.65625 -28 C 18.820312 -27.769531 18.0625 -27.394531 17.375 -26.875 C 16.6875 -26.351562 16.257812 -25.660156 16.09375 -24.796875 C 15.894531 -23.929688 16.085938 -23.25 16.671875 -22.75 C 17.253906 -22.25 18.09375 -21.832031 19.1875 -21.5 C 20.289062 -21.164062 21.5 -20.847656 22.8125 -20.546875 C 24.132812 -20.242188 25.445312 -19.875 26.75 -19.4375 C 28.050781 -19.007812 29.203125 -18.421875 30.203125 -17.671875 C 31.203125 -16.921875 31.914062 -15.945312 32.34375 -14.75 C 32.78125 -13.550781 32.78125 -12.019531 32.34375 -10.15625 C 31.882812 -8.15625 31.085938 -6.453125 29.953125 -5.046875 C 28.816406 -3.648438 27.472656 -2.523438 25.921875 -1.671875 C 24.367188 -0.828125 22.707031 -0.207031 20.9375 0.1875 C 19.175781 0.59375 17.429688 0.796875 15.703125 0.796875 C 13.835938 0.796875 12.09375 0.5625 10.46875 0.09375 C 8.851562 -0.363281 7.488281 -1.082031 6.375 -2.0625 C 5.257812 -3.050781 4.484375 -4.300781 4.046875 -5.8125 C 3.617188 -7.332031 3.632812 -9.128906 4.09375 -11.203125 L 11.703125 -11.203125 C 11.335938 -9.171875 11.738281 -7.675781 12.90625 -6.71875 C 14.070312 -5.769531 15.570312 -5.296875 17.40625 -5.296875 Z M 17.40625 -5.296875"
           id="path38" />
      </g>
    </g>
  </g>
  <g
     fill-opacity="1"
     fill="#d3021b"
     id="g44">
    <g
       transform="translate(195.569738, 196.295075)"
       id="g43">
      <g
         id="g42">
        <path
           d="M 23.75 -27.203125 L 17.453125 0 L 9.953125 0 L 16.25 -27.203125 L 6.546875 -27.203125 L 8.09375 -34 L 35 -34 L 33.453125 -27.203125 Z M 23.75 -27.203125"
           id="path41" />
      </g>
    </g>
  </g>
  <g
     fill-opacity="1"
     fill="#d3021b"
     id="g47">
    <g
       transform="translate(222.970581, 196.295075)"
       id="g46">
      <g
         id="g45">
        <path
           d="M 33.203125 -17.046875 C 33.597656 -18.816406 33.503906 -20.457031 32.921875 -21.96875 C 32.335938 -23.488281 31.382812 -24.710938 30.0625 -25.640625 C 28.75 -26.578125 27.226562 -27.046875 25.5 -27.046875 C 24.195312 -27.046875 22.878906 -26.769531 21.546875 -26.21875 C 20.210938 -25.675781 18.96875 -24.9375 17.8125 -24 C 16.664062 -23.0625 15.6875 -21.992188 14.875 -20.796875 C 14.0625 -19.597656 13.503906 -18.347656 13.203125 -17.046875 C 12.796875 -15.316406 12.882812 -13.679688 13.46875 -12.140625 C 14.050781 -10.609375 14.992188 -9.367188 16.296875 -8.421875 C 17.597656 -7.472656 19.113281 -7 20.84375 -7 C 22.175781 -7 23.5 -7.273438 24.8125 -7.828125 C 26.132812 -8.378906 27.367188 -9.117188 28.515625 -10.046875 C 29.671875 -10.984375 30.664062 -12.054688 31.5 -13.265625 C 32.332031 -14.484375 32.898438 -15.742188 33.203125 -17.046875 Z M 40.65625 -17 C 40.113281 -14.664062 39.132812 -12.441406 37.71875 -10.328125 C 36.300781 -8.210938 34.59375 -6.34375 32.59375 -4.71875 C 30.59375 -3.101562 28.4375 -1.828125 26.125 -0.890625 C 23.8125 0.0351562 21.488281 0.5 19.15625 0.5 C 16.78125 0.5 14.648438 0.0351562 12.765625 -0.890625 C 10.890625 -1.828125 9.328125 -3.101562 8.078125 -4.71875 C 6.828125 -6.34375 5.972656 -8.210938 5.515625 -10.328125 C 5.066406 -12.441406 5.113281 -14.664062 5.65625 -17 C 6.21875 -19.363281 7.207031 -21.59375 8.625 -23.6875 C 10.039062 -25.789062 11.75 -27.648438 13.75 -29.265625 C 15.75 -30.890625 17.90625 -32.164062 20.21875 -33.09375 C 22.539062 -34.03125 24.867188 -34.5 27.203125 -34.5 C 29.566406 -34.5 31.691406 -34.03125 33.578125 -33.09375 C 35.460938 -32.164062 37.03125 -30.890625 38.28125 -29.265625 C 39.53125 -27.648438 40.378906 -25.789062 40.828125 -23.6875 C 41.273438 -21.59375 41.21875 -19.363281 40.65625 -17 Z M 40.65625 -17"
           id="path44" />
      </g>
    </g>
  </g>
  <g
     fill-opacity="1"
     fill="#d3021b"
     id="g50">
    <g
       transform="translate(261.471771, 196.295075)"
       id="g49">
      <g
         id="g48">
        <path
           d="M 13.296875 -12.15625 L 10.5 0 L 3 0 L 10.84375 -34 L 23.59375 -34 C 25.425781 -34 27.023438 -33.539062 28.390625 -32.625 C 29.765625 -31.707031 30.75 -30.429688 31.34375 -28.796875 C 31.945312 -27.160156 32 -25.257812 31.5 -23.09375 C 31.03125 -21.195312 30.28125 -19.515625 29.25 -18.046875 C 28.21875 -16.578125 27.007812 -15.375 25.625 -14.4375 C 24.238281 -13.507812 22.796875 -12.863281 21.296875 -12.5 L 28.15625 0 L 18.65625 0 L 13.34375 -12.15625 Z M 21 -28.09375 L 17 -28.09375 L 14.65625 -18.046875 L 18.65625 -18.046875 C 19.75 -18.046875 20.867188 -18.476562 22.015625 -19.34375 C 23.171875 -20.21875 23.945312 -21.46875 24.34375 -23.09375 C 24.675781 -24.664062 24.476562 -25.890625 23.75 -26.765625 C 23.019531 -27.648438 22.101562 -28.09375 21 -28.09375 Z M 21 -28.09375"
           id="path47" />
      </g>
    </g>
  </g>
  <g
     fill-opacity="1"
     fill="#d3021b"
     id="g53">
    <g
       transform="translate(289.022623, 196.295075)"
       id="g52">
      <g
         id="g51">
        <path
           d="M 45.40625 0 L 37.15625 0 L 38.546875 -23.453125 L 26.5 0 L 19.15625 0 L 17.90625 -23.453125 L 8.5 0 L 0.25 0 L 14.703125 -34 L 23.59375 -34 L 25.203125 -10.15625 L 37.75 -34 L 46.65625 -34 Z M 45.40625 0"
           id="path50" />
      </g>
    </g>
  </g>
  <path
     stroke-miterlimit="4"
     stroke-opacity="1"
     stroke-width="1.650055"
     stroke="#ffffff"
     d="M 0.549531 2.39996 L 4.966198 2.39996 C 5.096407 2.39996 5.158907 2.46246 5.158907 2.592669 L 5.158907 3.790585 C 5.158907 3.920794 5.096407 3.983294 4.966198 3.983294 L 3.575573 3.983294 L 3.575573 11.806211 C 3.575573 11.936419 3.513073 11.998919 3.382865 11.998919 L 2.138073 11.998919 C 2.007865 11.998919 1.945365 11.936419 1.945365 11.806211 L 1.945365 3.983294 L 0.549531 3.983294 C 0.424531 3.983294 0.362031 3.920794 0.362031 3.790585 L 0.362031 2.592669 C 0.362031 2.46246 0.424531 2.39996 0.549531 2.39996 Z M 12.549532 5.327044 L 12.549532 7.738502 C 12.549532 8.436419 12.325574 8.926002 11.882866 9.207252 L 12.502657 11.785378 C 12.544324 11.926003 12.487032 11.998919 12.335991 11.998919 L 11.158907 11.998919 C 11.049532 11.998919 10.981824 11.946836 10.955782 11.832253 L 10.382865 9.467669 L 9.309949 9.467669 L 9.309949 11.806211 C 9.309949 11.936419 9.247449 11.998919 9.122449 11.998919 L 7.945365 11.998919 C 7.815157 11.998919 7.752657 11.936419 7.752657 11.806211 L 7.752657 3.790585 C 7.752657 3.665585 7.815157 3.603085 7.945365 3.603085 L 10.825574 3.603085 C 11.393282 3.603085 11.820366 3.748919 12.112032 4.040585 C 12.403699 4.332252 12.549532 4.759336 12.549532 5.327044 Z M 9.309949 7.920794 L 10.513074 7.920794 C 10.830782 7.920794 10.99224 7.759336 10.99224 7.441627 L 10.99224 5.629127 C 10.99224 5.306211 10.830782 5.149961 10.513074 5.149961 L 9.309949 5.149961 Z M 21.049533 11.998919 L 19.882866 11.998919 C 19.778699 11.998919 19.716199 11.946836 19.690158 11.832253 L 19.309949 10.321836 L 17.049533 10.321836 L 16.679741 11.832253 C 16.653699 11.946836 16.591199 11.998919 16.487032 11.998919 L 15.309949 11.998919 C 15.169324 11.998919 15.117241 11.931211 15.153699 11.795794 L 17.148491 3.769752 C 17.169324 3.655169 17.242241 3.603085 17.351616 3.603085 L 19.018283 3.603085 C 19.132866 3.603085 19.200574 3.655169 19.226616 3.769752 L 21.216199 11.795794 C 21.257866 11.931211 21.200574 11.998919 21.049533 11.998919 Z M 18.934949 8.926002 L 18.179741 5.665586 L 17.424533 8.926002 Z M 28.632867 5.327044 L 28.632867 6.623919 C 28.632867 6.754127 28.570367 6.816627 28.440158 6.816627 L 27.315158 6.816627 C 27.18495 6.816627 27.117242 6.754127 27.117242 6.623919 L 27.117242 5.639544 C 27.117242 5.321836 26.960991 5.160377 26.638075 5.160377 L 25.87245 5.160377 C 25.549533 5.160377 25.393283 5.321836 25.393283 5.639544 L 25.393283 9.993711 C 25.393283 10.316628 25.549533 10.478086 25.87245 10.478086 L 26.638075 10.478086 C 26.960991 10.478086 27.117242 10.316628 27.117242 9.993711 L 27.117242 8.978086 C 27.117242 8.847877 27.18495 8.785377 27.315158 8.785377 L 28.440158 8.785377 C 28.570367 8.785377 28.632867 8.847877 28.632867 8.978086 L 28.632867 10.269753 C 28.632867 10.832253 28.481825 11.259336 28.18495 11.556211 C 27.893283 11.853086 27.460992 11.998919 26.9037 11.998919 L 25.55995 11.998919 C 25.002658 11.998919 24.570366 11.853086 24.268283 11.556211 C 23.971408 11.259336 23.820366 10.832253 23.820366 10.269753 L 23.820366 5.327044 C 23.820366 4.759336 23.971408 4.332252 24.268283 4.040585 C 24.570366 3.748919 25.002658 3.603085 25.55995 3.603085 L 26.9037 3.603085 C 27.460992 3.603085 27.893283 3.748919 28.18495 4.040585 C 28.481825 4.332252 28.632867 4.759336 28.632867 5.327044 Z M 36.601617 11.998919 L 35.330784 11.998919 C 35.205784 11.998919 35.117242 11.941628 35.054742 11.821836 L 33.539117 8.858294 L 33.096409 9.707253 L 33.096409 11.759336 C 33.096409 11.920794 33.018284 11.998919 32.856825 11.998919 L 31.705783 11.998919 C 31.544325 11.998919 31.4662 11.920794 31.4662 11.759336 L 31.4662 3.842669 C 31.4662 3.68121 31.544325 3.603085 31.705783 3.603085 L 32.856825 3.603085 C 33.018284 3.603085 33.096409 3.68121 33.096409 3.842669 L 33.096409 6.962461 L 34.945367 3.780169 C 35.007867 3.660377 35.101617 3.603085 35.221409 3.603085 L 36.481825 3.603085 C 36.570367 3.603085 36.627659 3.629127 36.664117 3.686419 C 36.700575 3.738502 36.695367 3.80621 36.648492 3.889544 L 34.606825 7.478086 L 36.7787 11.722878 C 36.820367 11.806211 36.825575 11.868711 36.789117 11.926003 C 36.757867 11.972878 36.695367 11.998919 36.601617 11.998919 Z M 49.825576 11.998919 L 48.65891 11.998919 C 48.559951 11.998919 48.492243 11.946836 48.466201 11.832253 L 48.085993 10.321836 L 45.825576 10.321836 L 45.455784 11.832253 C 45.434951 11.946836 45.367243 11.998919 45.263076 11.998919 L 44.085993 11.998919 C 43.945368 11.998919 43.893284 11.931211 43.934951 11.795794 L 45.924534 3.769752 C 45.950576 3.655169 46.018284 3.603085 46.127659 3.603085 L 47.794326 3.603085 C 47.90891 3.603085 47.976618 3.655169 48.00266 3.769752 L 49.992243 11.795794 C 50.03391 11.931211 49.976618 11.998919 49.825576 11.998919 Z M 47.710993 8.926002 L 46.955784 5.665586 L 46.200576 8.926002 Z M 56.398493 3.603085 L 57.528702 3.603085 C 57.65891 3.603085 57.72141 3.665585 57.72141 3.790585 L 57.72141 11.806211 C 57.72141 11.936419 57.65891 11.998919 57.528702 11.998919 L 56.580785 11.998919 C 56.487035 11.998919 56.414118 11.946836 56.367243 11.842669 L 54.106827 7.259336 L 54.106827 11.806211 C 54.106827 11.936419 54.044327 11.998919 53.914118 11.998919 L 52.789118 11.998919 C 52.65891 11.998919 52.59641 11.936419 52.59641 11.806211 L 52.59641 3.790585 C 52.59641 3.665585 52.65891 3.603085 52.789118 3.603085 L 53.737035 3.603085 C 53.830785 3.603085 53.903702 3.64996 53.955785 3.754127 L 56.210993 8.342669 L 56.210993 3.790585 C 56.210993 3.665585 56.273493 3.603085 56.398493 3.603085 Z M 60.554744 11.806211 L 60.554744 3.790585 C 60.554744 3.665585 60.617244 3.603085 60.742244 3.603085 L 63.622452 3.603085 C 64.190161 3.603085 64.622452 3.748919 64.914119 4.045794 C 65.205786 4.342669 65.351619 4.774961 65.351619 5.342669 L 65.351619 10.269753 C 65.351619 10.832253 65.205786 11.259336 64.914119 11.556211 C 64.622452 11.853086 64.190161 11.998919 63.622452 11.998919 L 60.742244 11.998919 C 60.617244 11.998919 60.554744 11.936419 60.554744 11.806211 Z M 62.184952 10.415586 L 63.289119 10.415586 C 63.612036 10.415586 63.768286 10.254128 63.768286 9.936419 L 63.768286 5.676002 C 63.768286 5.347877 63.612036 5.181211 63.289119 5.181211 L 62.184952 5.181211 Z M 77.617245 2.592669 L 77.617245 3.790585 C 77.617245 3.920794 77.554745 3.983294 77.424536 3.983294 L 74.450578 3.983294 L 74.450578 6.394752 L 76.705786 6.394752 C 76.830786 6.394752 76.893286 6.462461 76.893286 6.587461 L 76.893286 7.785377 C 76.893286 7.915586 76.830786 7.978086 76.705786 7.978086 L 74.450578 7.978086 L 74.450578 11.806211 C 74.450578 11.936419 74.38287 11.998919 74.25787 11.998919 L 73.00787 11.998919 C 72.88287 11.998919 72.815161 11.936419 72.815161 11.806211 L 72.815161 2.592669 C 72.815161 2.46246 72.88287 2.39996 73.00787 2.39996 L 77.424536 2.39996 C 77.554745 2.39996 77.617245 2.46246 77.617245 2.592669 Z M 80.638078 11.998919 L 81.888078 11.998919 C 82.018287 11.998919 82.080787 11.936419 82.080787 11.806211 L 82.080787 3.790585 C 82.080787 3.665585 82.018287 3.603085 81.888078 3.603085 L 80.638078 3.603085 C 80.513078 3.603085 80.450578 3.665585 80.450578 3.790585 L 80.450578 11.806211 C 80.450578 11.936419 80.513078 11.998919 80.638078 11.998919 Z M 89.700579 3.790585 L 89.700579 4.993711 C 89.700579 5.129127 89.638079 5.196836 89.507871 5.196836 L 86.544329 5.196836 L 86.544329 7.040586 L 88.799537 7.040586 C 88.929746 7.040586 88.992246 7.113502 88.992246 7.248919 L 88.992246 8.436419 C 88.992246 8.571836 88.929746 8.639544 88.799537 8.639544 L 86.544329 8.639544 L 86.544329 10.415586 L 89.507871 10.415586 C 89.638079 10.415586 89.700579 10.478086 89.700579 10.608294 L 89.700579 11.806211 C 89.700579 11.936419 89.638079 11.998919 89.507871 11.998919 L 85.091204 11.998919 C 84.971412 11.998919 84.91412 11.936419 84.91412 11.806211 L 84.91412 3.790585 C 84.91412 3.665585 84.971412 3.603085 85.091204 3.603085 L 89.507871 3.603085 C 89.638079 3.603085 89.700579 3.665585 89.700579 3.790585 Z M 94.164121 10.415586 L 94.164121 3.790585 C 94.164121 3.665585 94.101621 3.603085 93.971413 3.603085 L 92.726621 3.603085 C 92.596412 3.603085 92.533912 3.665585 92.533912 3.790585 L 92.533912 11.806211 C 92.533912 11.936419 92.596412 11.998919 92.726621 11.998919 L 96.539121 11.998919 C 96.669329 11.998919 96.731829 11.936419 96.731829 11.806211 L 96.731829 10.608294 C 96.731829 10.478086 96.669329 10.415586 96.539121 10.415586 Z M 99.565163 11.806211 L 99.565163 3.790585 C 99.565163 3.665585 99.627663 3.603085 99.757871 3.603085 L 102.63808 3.603085 C 103.205788 3.603085 103.632872 3.748919 103.924538 4.045794 C 104.216205 4.342669 104.367247 4.774961 104.367247 5.342669 L 104.367247 10.269753 C 104.367247 10.832253 104.216205 11.259336 103.924538 11.556211 C 103.632872 11.853086 103.205788 11.998919 102.63808 11.998919 L 99.757871 11.998919 C 99.627663 11.998919 99.565163 11.936419 99.565163 11.806211 Z M 101.195371 10.415586 L 102.304746 10.415586 C 102.622455 10.415586 102.783913 10.254128 102.783913 9.936419 L 102.783913 5.676002 C 102.783913 5.347877 102.622455 5.181211 102.304746 5.181211 L 101.195371 5.181211 Z M 111.778705 2.39996 L 116.200581 2.39996 C 116.325581 2.39996 116.388081 2.46246 116.388081 2.592669 L 116.388081 3.790585 C 116.388081 3.920794 116.325581 3.983294 116.200581 3.983294 L 114.804747 3.983294 L 114.804747 11.806211 C 114.804747 11.936419 114.742247 11.998919 114.612039 11.998919 L 113.367247 11.998919 C 113.237039 11.998919 113.174539 11.936419 113.174539 11.806211 L 113.174539 3.983294 L 111.778705 3.983294 C 111.653705 3.983294 111.591205 3.920794 111.591205 3.790585 L 111.591205 2.592669 C 111.591205 2.46246 111.653705 2.39996 111.778705 2.39996 Z M 119.174539 11.998919 L 120.419331 11.998919 C 120.549539 11.998919 120.612039 11.936419 120.612039 11.806211 L 120.612039 3.790585 C 120.612039 3.665585 120.549539 3.603085 120.419331 3.603085 L 119.174539 3.603085 C 119.044331 3.603085 118.981831 3.665585 118.981831 3.790585 L 118.981831 11.806211 C 118.981831 11.936419 119.044331 11.998919 119.174539 11.998919 Z M 128.460998 3.603085 L 130.044332 3.603085 C 130.20579 3.603085 130.289123 3.68121 130.289123 3.842669 L 130.289123 11.759336 C 130.289123 11.920794 130.20579 11.998919 130.044332 11.998919 L 128.929748 11.998919 C 128.76829 11.998919 128.690165 11.920794 128.690165 11.759336 L 128.690165 7.040586 L 128.606832 7.040586 L 127.476623 11.795794 C 127.440165 11.931211 127.351623 11.998919 127.216206 11.998919 L 126.502665 11.998919 C 126.372456 11.998919 126.283915 11.931211 126.242248 11.795794 L 125.11204 7.040586 L 125.028706 7.040586 L 125.028706 11.759336 C 125.028706 11.920794 124.950581 11.998919 124.789123 11.998919 L 123.684956 11.998919 C 123.528706 11.998919 123.445373 11.920794 123.445373 11.759336 L 123.445373 3.842669 C 123.445373 3.68121 123.528706 3.603085 123.684956 3.603085 L 125.26829 3.603085 C 125.403706 3.603085 125.492248 3.665585 125.533915 3.801002 L 126.867248 9.155169 L 128.200581 3.801002 C 128.23704 3.665585 128.325581 3.603085 128.460998 3.603085 Z M 133.309957 11.998919 L 134.554749 11.998919 C 134.684957 11.998919 134.752665 11.936419 134.752665 11.806211 L 134.752665 3.790585 C 134.752665 3.665585 134.684957 3.603085 134.554749 3.603085 L 133.309957 3.603085 C 133.179748 3.603085 133.117248 3.665585 133.117248 3.790585 L 133.117248 11.806211 C 133.117248 11.936419 133.179748 11.998919 133.309957 11.998919 Z M 141.382874 3.603085 L 142.513082 3.603085 C 142.643291 3.603085 142.705791 3.665585 142.705791 3.790585 L 142.705791 11.806211 C 142.705791 11.936419 142.643291 11.998919 142.513082 11.998919 L 141.565166 11.998919 C 141.471416 11.998919 141.398499 11.946836 141.351624 11.842669 L 139.096416 7.259336 L 139.096416 11.806211 C 139.096416 11.936419 139.028707 11.998919 138.898499 11.998919 L 137.773499 11.998919 C 137.64329 11.998919 137.58079 11.936419 137.58079 11.806211 L 137.58079 3.790585 C 137.58079 3.665585 137.64329 3.603085 137.773499 3.603085 L 138.721416 3.603085 C 138.815166 3.603085 138.888082 3.64996 138.940166 3.754127 L 141.195374 8.342669 L 141.195374 3.790585 C 141.195374 3.665585 141.257874 3.603085 141.382874 3.603085 Z M 145.539124 10.269753 L 145.539124 5.327044 C 145.539124 4.759336 145.684958 4.332252 145.981833 4.040585 C 146.278708 3.748919 146.705791 3.603085 147.268291 3.603085 L 148.606833 3.603085 C 149.169333 3.603085 149.596416 3.748919 149.893291 4.040585 C 150.190166 4.332252 150.336 4.759336 150.336 5.327044 L 150.336 6.217669 C 150.336 6.342669 150.2735 6.405169 150.1485 6.405169 L 149.018291 6.405169 C 148.888083 6.405169 148.825583 6.342669 148.825583 6.217669 L 148.825583 5.629127 C 148.825583 5.306211 148.664124 5.149961 148.346416 5.149961 L 147.575583 5.149961 C 147.257874 5.149961 147.096416 5.306211 147.096416 5.629127 L 147.096416 9.972878 C 147.096416 10.290586 147.257874 10.452044 147.575583 10.452044 L 148.346416 10.452044 C 148.664124 10.452044 148.825583 10.290586 148.825583 9.972878 L 148.825583 8.926002 L 148.200583 8.926002 C 148.075583 8.926002 148.013083 8.863502 148.013083 8.738502 L 148.013083 7.535377 C 148.013083 7.410377 148.075583 7.342669 148.200583 7.342669 L 150.1485 7.342669 C 150.2735 7.342669 150.336 7.410377 150.336 7.535377 L 150.336 10.269753 C 150.336 10.832253 150.190166 11.259336 149.893291 11.556211 C 149.596416 11.853086 149.169333 11.998919 148.606833 11.998919 L 147.268291 11.998919 C 146.705791 11.998919 146.278708 11.853086 145.981833 11.556211 C 145.684958 11.259336 145.539124 10.832253 145.539124 10.269753 Z M 157.752667 2.39996 L 162.169334 2.39996 C 162.299542 2.39996 162.362042 2.46246 162.362042 2.592669 L 162.362042 3.790585 C 162.362042 3.920794 162.299542 3.983294 162.169334 3.983294 L 160.778709 3.983294 L 160.778709 11.806211 C 160.778709 11.936419 160.716209 11.998919 160.586 11.998919 L 159.336 11.998919 C 159.211 11.998919 159.1485 11.936419 159.1485 11.806211 L 159.1485 3.983294 L 157.752667 3.983294 C 157.627667 3.983294 157.559958 3.920794 157.559958 3.790585 L 157.559958 2.592669 C 157.559958 2.46246 157.627667 2.39996 157.752667 2.39996 Z M 164.955792 10.269753 L 164.955792 5.327044 C 164.955792 4.759336 165.101626 4.332252 165.398501 4.040585 C 165.695376 3.748919 166.122459 3.603085 166.684959 3.603085 L 168.023501 3.603085 C 168.591209 3.603085 169.023501 3.748919 169.315168 4.040585 C 169.606834 4.332252 169.752668 4.759336 169.752668 5.327044 L 169.752668 10.269753 C 169.752668 10.832253 169.606834 11.259336 169.315168 11.556211 C 169.023501 11.853086 168.591209 11.998919 168.023501 11.998919 L 166.684959 11.998919 C 166.122459 11.998919 165.695376 11.853086 165.398501 11.556211 C 165.101626 11.259336 164.955792 10.832253 164.955792 10.269753 Z M 166.992251 10.452044 L 167.763084 10.452044 C 168.080792 10.452044 168.242251 10.290586 168.242251 9.972878 L 168.242251 5.629127 C 168.242251 5.306211 168.080792 5.149961 167.763084 5.149961 L 166.992251 5.149961 C 166.674542 5.149961 166.513084 5.306211 166.513084 5.629127 L 166.513084 9.972878 C 166.513084 10.290586 166.674542 10.452044 166.992251 10.452044 Z M 172.586001 10.269753 L 172.586001 5.327044 C 172.586001 4.759336 172.731834 4.332252 173.028709 4.040585 C 173.325584 3.748919 173.752668 3.603085 174.315168 3.603085 L 175.658918 3.603085 C 176.226626 3.603085 176.65371 3.748919 176.945376 4.040585 C 177.237043 4.332252 177.388085 4.759336 177.388085 5.327044 L 177.388085 10.269753 C 177.388085 10.832253 177.237043 11.259336 176.945376 11.556211 C 176.65371 11.853086 176.226626 11.998919 175.658918 11.998919 L 174.315168 11.998919 C 173.752668 11.998919 173.325584 11.853086 173.028709 11.556211 C 172.731834 11.259336 172.586001 10.832253 172.586001 10.269753 Z M 174.627668 10.452044 L 175.393293 10.452044 C 175.71621 10.452044 175.87246 10.290586 175.87246 9.972878 L 175.87246 5.629127 C 175.87246 5.306211 175.71621 5.149961 175.393293 5.149961 L 174.627668 5.149961 C 174.304751 5.149961 174.143293 5.306211 174.143293 5.629127 L 174.143293 9.972878 C 174.143293 10.290586 174.304751 10.452044 174.627668 10.452044 Z M 181.851627 10.415586 L 181.851627 3.790585 C 181.851627 3.665585 181.783918 3.603085 181.658918 3.603085 L 180.408918 3.603085 C 180.283918 3.603085 180.221418 3.665585 180.221418 3.790585 L 180.221418 11.806211 C 180.221418 11.936419 180.283918 11.998919 180.408918 11.998919 L 184.226627 11.998919 C 184.351627 11.998919 184.419335 11.936419 184.419335 11.806211 L 184.419335 10.608294 C 184.419335 10.478086 184.351627 10.415586 184.226627 10.415586 Z M 192.388086 11.998919 L 191.117252 11.998919 C 190.992252 11.998919 190.903711 11.941628 190.841211 11.821836 L 189.325585 8.858294 L 188.882877 9.707253 L 188.882877 11.759336 C 188.882877 11.920794 188.804752 11.998919 188.643294 11.998919 L 187.492252 11.998919 C 187.330794 11.998919 187.252669 11.920794 187.252669 11.759336 L 187.252669 3.842669 C 187.252669 3.68121 187.330794 3.603085 187.492252 3.603085 L 188.643294 3.603085 C 188.804752 3.603085 188.882877 3.68121 188.882877 3.842669 L 188.882877 6.962461 L 190.731836 3.780169 C 190.794336 3.660377 190.888086 3.603085 191.007877 3.603085 L 192.268294 3.603085 C 192.356836 3.603085 192.414127 3.629127 192.450586 3.686419 C 192.487044 3.738502 192.481836 3.80621 192.434961 3.889544 L 190.393294 7.478086 L 192.565169 11.722878 C 192.606836 11.806211 192.612044 11.868711 192.575586 11.926003 C 192.544336 11.972878 192.481836 11.998919 192.388086 11.998919 Z M 195.507878 11.998919 L 196.752669 11.998919 C 196.882878 11.998919 196.945378 11.936419 196.945378 11.806211 L 196.945378 3.790585 C 196.945378 3.665585 196.882878 3.603085 196.752669 3.603085 L 195.507878 3.603085 C 195.377669 3.603085 195.315169 3.665585 195.315169 3.790585 L 195.315169 11.806211 C 195.315169 11.936419 195.377669 11.998919 195.507878 11.998919 Z M 204.148503 3.603085 L 199.731836 3.603085 C 199.601628 3.603085 199.539128 3.665585 199.539128 3.790585 L 199.539128 4.993711 C 199.539128 5.118711 199.601628 5.181211 199.731836 5.181211 L 201.122461 5.181211 L 201.122461 11.806211 C 201.122461 11.936419 201.184961 11.998919 201.31517 11.998919 L 202.559961 11.998919 C 202.69017 11.998919 202.757878 11.936419 202.757878 11.806211 L 202.757878 5.181211 L 204.148503 5.181211 C 204.273503 5.181211 204.336003 5.118711 204.336003 4.993711 L 204.336003 3.790585 C 204.336003 3.665585 204.273503 3.603085 204.148503 3.603085 Z M 204.148503 3.603085"
     stroke-linejoin="miter"
     fill="none"
     transform="matrix(0.75, 0, 0, 0.75, 51.732383, 203.32503)"
     stroke-linecap="butt"
     id="path56" />
  <g
     fill-opacity="1"
     fill="#000000"
     id="g59">
    <g
       transform="translate(51.732383, 212.325029)"
       id="g58">
      <g
         id="g57">
        <path
           d="M 0.40625 -7.203125 L 3.71875 -7.203125 C 3.820312 -7.203125 3.875 -7.15625 3.875 -7.0625 L 3.875 -6.15625 C 3.875 -6.0625 3.820312 -6.015625 3.71875 -6.015625 L 2.6875 -6.015625 L 2.6875 -0.140625 C 2.6875 -0.046875 2.632812 0 2.53125 0 L 1.609375 0 C 1.503906 0 1.453125 -0.046875 1.453125 -0.140625 L 1.453125 -6.015625 L 0.40625 -6.015625 C 0.3125 -6.015625 0.265625 -6.0625 0.265625 -6.15625 L 0.265625 -7.0625 C 0.265625 -7.15625 0.3125 -7.203125 0.40625 -7.203125 Z M 0.40625 -7.203125"
           id="path57" />
      </g>
    </g>
  </g>
  <g
     fill-opacity="1"
     fill="#000000"
     id="g62">
    <g
       transform="translate(57.096449, 212.325029)"
       id="g61">
      <g
         id="g60">
        <path
           d="M 4.046875 -5 L 4.046875 -3.1875 C 4.046875 -2.664062 3.878906 -2.300781 3.546875 -2.09375 L 4.015625 -0.15625 C 4.046875 -0.0507812 4.003906 0 3.890625 0 L 3 0 C 2.914062 0 2.867188 -0.0390625 2.859375 -0.125 L 2.421875 -1.90625 L 1.625 -1.90625 L 1.625 -0.140625 C 1.625 -0.046875 1.570312 0 1.46875 0 L 0.59375 0 C 0.5 0 0.453125 -0.046875 0.453125 -0.140625 L 0.453125 -6.15625 C 0.453125 -6.25 0.5 -6.296875 0.59375 -6.296875 L 2.75 -6.296875 C 3.175781 -6.296875 3.5 -6.1875 3.71875 -5.96875 C 3.9375 -5.75 4.046875 -5.425781 4.046875 -5 Z M 1.625 -3.0625 L 2.515625 -3.0625 C 2.753906 -3.0625 2.875 -3.179688 2.875 -3.421875 L 2.875 -4.78125 C 2.875 -5.019531 2.753906 -5.140625 2.515625 -5.140625 L 1.625 -5.140625 Z M 1.625 -3.0625"
           id="path59" />
      </g>
    </g>
  </g>
  <g
     fill-opacity="1"
     fill="#000000"
     id="g65">
    <g
       transform="translate(62.820524, 212.325029)"
       id="g64">
      <g
         id="g63">
        <path
           d="M 4.703125 0 L 3.828125 0 C 3.742188 0 3.695312 -0.0390625 3.6875 -0.125 L 3.390625 -1.265625 L 1.703125 -1.265625 L 1.421875 -0.125 C 1.398438 -0.0390625 1.351562 0 1.28125 0 L 0.390625 0 C 0.285156 0 0.25 -0.0507812 0.28125 -0.15625 L 1.765625 -6.171875 C 1.785156 -6.253906 1.835938 -6.296875 1.921875 -6.296875 L 3.171875 -6.296875 C 3.253906 -6.296875 3.304688 -6.253906 3.328125 -6.171875 L 4.828125 -0.15625 C 4.859375 -0.0507812 4.816406 0 4.703125 0 Z M 3.109375 -2.296875 L 2.546875 -4.75 L 1.984375 -2.296875 Z M 3.109375 -2.296875"
           id="path62" />
      </g>
    </g>
  </g>
  <g
     fill-opacity="1"
     fill="#000000"
     id="g68">
    <g
       transform="translate(69.1476, 212.325029)"
       id="g67">
      <g
         id="g66">
        <path
           d="M 4.0625 -5 L 4.0625 -4.03125 C 4.0625 -3.9375 4.015625 -3.890625 3.921875 -3.890625 L 3.0625 -3.890625 C 2.96875 -3.890625 2.921875 -3.9375 2.921875 -4.03125 L 2.921875 -4.765625 C 2.921875 -5.003906 2.800781 -5.125 2.5625 -5.125 L 1.984375 -5.125 C 1.742188 -5.125 1.625 -5.003906 1.625 -4.765625 L 1.625 -1.5 C 1.625 -1.257812 1.742188 -1.140625 1.984375 -1.140625 L 2.5625 -1.140625 C 2.800781 -1.140625 2.921875 -1.257812 2.921875 -1.5 L 2.921875 -2.265625 C 2.921875 -2.359375 2.96875 -2.40625 3.0625 -2.40625 L 3.921875 -2.40625 C 4.015625 -2.40625 4.0625 -2.359375 4.0625 -2.265625 L 4.0625 -1.296875 C 4.0625 -0.878906 3.945312 -0.554688 3.71875 -0.328125 C 3.5 -0.109375 3.179688 0 2.765625 0 L 1.75 0 C 1.332031 0 1.007812 -0.109375 0.78125 -0.328125 C 0.5625 -0.554688 0.453125 -0.878906 0.453125 -1.296875 L 0.453125 -5 C 0.453125 -5.425781 0.5625 -5.75 0.78125 -5.96875 C 1.007812 -6.1875 1.332031 -6.296875 1.75 -6.296875 L 2.765625 -6.296875 C 3.179688 -6.296875 3.5 -6.1875 3.71875 -5.96875 C 3.945312 -5.75 4.0625 -5.425781 4.0625 -5 Z M 4.0625 -5"
           id="path65" />
      </g>
    </g>
  </g>
  <g
     fill-opacity="1"
     fill="#000000"
     id="g71">
    <g
       transform="translate(74.880669, 212.325029)"
       id="g70">
      <g
         id="g69">
        <path
           d="M 4.296875 0 L 3.34375 0 C 3.257812 0 3.191406 -0.046875 3.140625 -0.140625 L 2 -2.359375 L 1.671875 -1.71875 L 1.671875 -0.1875 C 1.671875 -0.0625 1.613281 0 1.5 0 L 0.625 0 C 0.507812 0 0.453125 -0.0625 0.453125 -0.1875 L 0.453125 -6.125 C 0.453125 -6.238281 0.507812 -6.296875 0.625 -6.296875 L 1.5 -6.296875 C 1.613281 -6.296875 1.671875 -6.238281 1.671875 -6.125 L 1.671875 -3.78125 L 3.0625 -6.171875 C 3.101562 -6.253906 3.171875 -6.296875 3.265625 -6.296875 L 4.21875 -6.296875 C 4.28125 -6.296875 4.320312 -6.273438 4.34375 -6.234375 C 4.375 -6.191406 4.375 -6.140625 4.34375 -6.078125 L 2.8125 -3.390625 L 4.4375 -0.203125 C 4.46875 -0.140625 4.46875 -0.0859375 4.4375 -0.046875 C 4.414062 -0.015625 4.367188 0 4.296875 0 Z M 4.296875 0"
           id="path68" />
      </g>
    </g>
  </g>
  <g
     fill-opacity="1"
     fill="#000000"
     id="g74">
    <g
       transform="translate(80.928748, 212.325029)"
       id="g73">
      <g
         id="g72" />
    </g>
  </g>
  <g
     fill-opacity="1"
     fill="#000000"
     id="g77">
    <g
       transform="translate(84.402799, 212.325029)"
       id="g76">
      <g
         id="g75">
        <path
           d="M 4.703125 0 L 3.828125 0 C 3.742188 0 3.695312 -0.0390625 3.6875 -0.125 L 3.390625 -1.265625 L 1.703125 -1.265625 L 1.421875 -0.125 C 1.398438 -0.0390625 1.351562 0 1.28125 0 L 0.390625 0 C 0.285156 0 0.25 -0.0507812 0.28125 -0.15625 L 1.765625 -6.171875 C 1.785156 -6.253906 1.835938 -6.296875 1.921875 -6.296875 L 3.171875 -6.296875 C 3.253906 -6.296875 3.304688 -6.253906 3.328125 -6.171875 L 4.828125 -0.15625 C 4.859375 -0.0507812 4.816406 0 4.703125 0 Z M 3.109375 -2.296875 L 2.546875 -4.75 L 1.984375 -2.296875 Z M 3.109375 -2.296875"
           id="path74" />
      </g>
    </g>
  </g>
  <g
     fill-opacity="1"
     fill="#000000"
     id="g80">
    <g
       transform="translate(90.729874, 212.325029)"
       id="g79">
      <g
         id="g78">
        <path
           d="M 3.296875 -6.296875 L 4.15625 -6.296875 C 4.25 -6.296875 4.296875 -6.25 4.296875 -6.15625 L 4.296875 -0.140625 C 4.296875 -0.046875 4.25 0 4.15625 0 L 3.4375 0 C 3.363281 0 3.3125 -0.0351562 3.28125 -0.109375 L 1.578125 -3.5625 L 1.578125 -0.140625 C 1.578125 -0.046875 1.53125 0 1.4375 0 L 0.59375 0 C 0.5 0 0.453125 -0.046875 0.453125 -0.140625 L 0.453125 -6.15625 C 0.453125 -6.25 0.5 -6.296875 0.59375 -6.296875 L 1.3125 -6.296875 C 1.375 -6.296875 1.425781 -6.257812 1.46875 -6.1875 L 3.15625 -2.75 L 3.15625 -6.15625 C 3.15625 -6.25 3.203125 -6.296875 3.296875 -6.296875 Z M 3.296875 -6.296875"
           id="path77" />
      </g>
    </g>
  </g>
  <g
     fill-opacity="1"
     fill="#000000"
     id="g83">
    <g
       transform="translate(96.696952, 212.325029)"
       id="g82">
      <g
         id="g81">
        <path
           d="M 0.453125 -0.140625 L 0.453125 -6.15625 C 0.453125 -6.25 0.5 -6.296875 0.59375 -6.296875 L 2.75 -6.296875 C 3.175781 -6.296875 3.5 -6.1875 3.71875 -5.96875 C 3.9375 -5.75 4.046875 -5.425781 4.046875 -5 L 4.046875 -1.296875 C 4.046875 -0.878906 3.9375 -0.554688 3.71875 -0.328125 C 3.5 -0.109375 3.175781 0 2.75 0 L 0.59375 0 C 0.5 0 0.453125 -0.046875 0.453125 -0.140625 Z M 1.671875 -1.1875 L 2.5 -1.1875 C 2.738281 -1.1875 2.859375 -1.304688 2.859375 -1.546875 L 2.859375 -4.75 C 2.859375 -4.988281 2.738281 -5.109375 2.5 -5.109375 L 1.671875 -5.109375 Z M 1.671875 -1.1875"
           id="path80" />
      </g>
    </g>
  </g>
  <g
     fill-opacity="1"
     fill="#000000"
     id="g86">
    <g
       transform="translate(102.421026, 212.325029)"
       id="g85">
      <g
         id="g84" />
    </g>
  </g>
  <g
     fill-opacity="1"
     fill="#000000"
     id="g89">
    <g
       transform="translate(105.89508, 212.325029)"
       id="g88">
      <g
         id="g87">
        <path
           d="M 4.046875 -7.0625 L 4.046875 -6.15625 C 4.046875 -6.0625 4 -6.015625 3.90625 -6.015625 L 1.671875 -6.015625 L 1.671875 -4.203125 L 3.359375 -4.203125 C 3.460938 -4.203125 3.515625 -4.15625 3.515625 -4.0625 L 3.515625 -3.15625 C 3.515625 -3.0625 3.460938 -3.015625 3.359375 -3.015625 L 1.671875 -3.015625 L 1.671875 -0.140625 C 1.671875 -0.046875 1.625 0 1.53125 0 L 0.59375 0 C 0.5 0 0.453125 -0.046875 0.453125 -0.140625 L 0.453125 -7.0625 C 0.453125 -7.15625 0.5 -7.203125 0.59375 -7.203125 L 3.90625 -7.203125 C 4 -7.203125 4.046875 -7.15625 4.046875 -7.0625 Z M 4.046875 -7.0625"
           id="path86" />
      </g>
    </g>
  </g>
  <g
     fill-opacity="1"
     fill="#000000"
     id="g92">
    <g
       transform="translate(111.619157, 212.325029)"
       id="g91">
      <g
         id="g90">
        <path
           d="M 0.59375 0 L 1.53125 0 C 1.625 0 1.671875 -0.046875 1.671875 -0.140625 L 1.671875 -6.15625 C 1.671875 -6.25 1.625 -6.296875 1.53125 -6.296875 L 0.59375 -6.296875 C 0.5 -6.296875 0.453125 -6.25 0.453125 -6.15625 L 0.453125 -0.140625 C 0.453125 -0.046875 0.5 0 0.59375 0 Z M 0.59375 0"
           id="path89" />
      </g>
    </g>
  </g>
  <g
     fill-opacity="1"
     fill="#000000"
     id="g95">
    <g
       transform="translate(114.967211, 212.325029)"
       id="g94">
      <g
         id="g93">
        <path
           d="M 4.046875 -6.15625 L 4.046875 -5.25 C 4.046875 -5.15625 3.992188 -5.109375 3.890625 -5.109375 L 1.671875 -5.109375 L 1.671875 -3.71875 L 3.359375 -3.71875 C 3.460938 -3.71875 3.515625 -3.664062 3.515625 -3.5625 L 3.515625 -2.671875 C 3.515625 -2.566406 3.460938 -2.515625 3.359375 -2.515625 L 1.671875 -2.515625 L 1.671875 -1.1875 L 3.890625 -1.1875 C 3.992188 -1.1875 4.046875 -1.140625 4.046875 -1.046875 L 4.046875 -0.140625 C 4.046875 -0.046875 3.992188 0 3.890625 0 L 0.578125 0 C 0.492188 0 0.453125 -0.046875 0.453125 -0.140625 L 0.453125 -6.15625 C 0.453125 -6.25 0.492188 -6.296875 0.578125 -6.296875 L 3.890625 -6.296875 C 3.992188 -6.296875 4.046875 -6.25 4.046875 -6.15625 Z M 4.046875 -6.15625"
           id="path92" />
      </g>
    </g>
  </g>
  <g
     fill-opacity="1"
     fill="#000000"
     id="g98">
    <g
       transform="translate(120.682282, 212.325029)"
       id="g97">
      <g
         id="g96">
        <path
           d="M 1.671875 -1.1875 L 1.671875 -6.15625 C 1.671875 -6.25 1.625 -6.296875 1.53125 -6.296875 L 0.59375 -6.296875 C 0.5 -6.296875 0.453125 -6.25 0.453125 -6.15625 L 0.453125 -0.140625 C 0.453125 -0.046875 0.5 0 0.59375 0 L 3.453125 0 C 3.546875 0 3.59375 -0.046875 3.59375 -0.140625 L 3.59375 -1.046875 C 3.59375 -1.140625 3.546875 -1.1875 3.453125 -1.1875 Z M 1.671875 -1.1875"
           id="path95" />
      </g>
    </g>
  </g>
  <g
     fill-opacity="1"
     fill="#000000"
     id="g101">
    <g
       transform="translate(125.956354, 212.325029)"
       id="g100">
      <g
         id="g99">
        <path
           d="M 0.453125 -0.140625 L 0.453125 -6.15625 C 0.453125 -6.25 0.5 -6.296875 0.59375 -6.296875 L 2.75 -6.296875 C 3.175781 -6.296875 3.5 -6.1875 3.71875 -5.96875 C 3.9375 -5.75 4.046875 -5.425781 4.046875 -5 L 4.046875 -1.296875 C 4.046875 -0.878906 3.9375 -0.554688 3.71875 -0.328125 C 3.5 -0.109375 3.175781 0 2.75 0 L 0.59375 0 C 0.5 0 0.453125 -0.046875 0.453125 -0.140625 Z M 1.671875 -1.1875 L 2.5 -1.1875 C 2.738281 -1.1875 2.859375 -1.304688 2.859375 -1.546875 L 2.859375 -4.75 C 2.859375 -4.988281 2.738281 -5.109375 2.5 -5.109375 L 1.671875 -5.109375 Z M 1.671875 -1.1875"
           id="path98" />
      </g>
    </g>
  </g>
  <g
     fill-opacity="1"
     fill="#000000"
     id="g104">
    <g
       transform="translate(131.680431, 212.325029)"
       id="g103">
      <g
         id="g102" />
    </g>
  </g>
  <g
     fill-opacity="1"
     fill="#000000"
     id="g107">
    <g
       transform="translate(135.154485, 212.325029)"
       id="g106">
      <g
         id="g105">
        <path
           d="M 0.40625 -7.203125 L 3.71875 -7.203125 C 3.820312 -7.203125 3.875 -7.15625 3.875 -7.0625 L 3.875 -6.15625 C 3.875 -6.0625 3.820312 -6.015625 3.71875 -6.015625 L 2.6875 -6.015625 L 2.6875 -0.140625 C 2.6875 -0.046875 2.632812 0 2.53125 0 L 1.609375 0 C 1.503906 0 1.453125 -0.046875 1.453125 -0.140625 L 1.453125 -6.015625 L 0.40625 -6.015625 C 0.3125 -6.015625 0.265625 -6.0625 0.265625 -6.15625 L 0.265625 -7.0625 C 0.265625 -7.15625 0.3125 -7.203125 0.40625 -7.203125 Z M 0.40625 -7.203125"
           id="path104" />
      </g>
    </g>
  </g>
  <g
     fill-opacity="1"
     fill="#000000"
     id="g110">
    <g
       transform="translate(140.518554, 212.325029)"
       id="g109">
      <g
         id="g108">
        <path
           d="M 0.59375 0 L 1.53125 0 C 1.625 0 1.671875 -0.046875 1.671875 -0.140625 L 1.671875 -6.15625 C 1.671875 -6.25 1.625 -6.296875 1.53125 -6.296875 L 0.59375 -6.296875 C 0.5 -6.296875 0.453125 -6.25 0.453125 -6.15625 L 0.453125 -0.140625 C 0.453125 -0.046875 0.5 0 0.59375 0 Z M 0.59375 0"
           id="path107" />
      </g>
    </g>
  </g>
  <g
     fill-opacity="1"
     fill="#000000"
     id="g113">
    <g
       transform="translate(143.866608, 212.325029)"
       id="g112">
      <g
         id="g111">
        <path
           d="M 4.21875 -6.296875 L 5.40625 -6.296875 C 5.519531 -6.296875 5.578125 -6.238281 5.578125 -6.125 L 5.578125 -0.1875 C 5.578125 -0.0625 5.519531 0 5.40625 0 L 4.5625 0 C 4.445312 0 4.390625 -0.0625 4.390625 -0.1875 L 4.390625 -3.71875 L 4.3125 -3.71875 L 3.46875 -0.15625 C 3.4375 -0.0507812 3.375 0 3.28125 0 L 2.75 0 C 2.644531 0 2.578125 -0.0507812 2.546875 -0.15625 L 1.703125 -3.71875 L 1.640625 -3.71875 L 1.640625 -0.1875 C 1.640625 -0.0625 1.578125 0 1.453125 0 L 0.625 0 C 0.507812 0 0.453125 -0.0625 0.453125 -0.1875 L 0.453125 -6.125 C 0.453125 -6.238281 0.507812 -6.296875 0.625 -6.296875 L 1.8125 -6.296875 C 1.914062 -6.296875 1.984375 -6.242188 2.015625 -6.140625 L 3.015625 -2.140625 L 4.015625 -6.140625 C 4.046875 -6.242188 4.113281 -6.296875 4.21875 -6.296875 Z M 4.21875 -6.296875"
           id="path110" />
      </g>
    </g>
  </g>
  <g
     fill-opacity="1"
     fill="#000000"
     id="g116">
    <g
       transform="translate(151.120686, 212.325029)"
       id="g115">
      <g
         id="g114">
        <path
           d="M 0.59375 0 L 1.53125 0 C 1.625 0 1.671875 -0.046875 1.671875 -0.140625 L 1.671875 -6.15625 C 1.671875 -6.25 1.625 -6.296875 1.53125 -6.296875 L 0.59375 -6.296875 C 0.5 -6.296875 0.453125 -6.25 0.453125 -6.15625 L 0.453125 -0.140625 C 0.453125 -0.046875 0.5 0 0.59375 0 Z M 0.59375 0"
           id="path113" />
      </g>
    </g>
  </g>
  <g
     fill-opacity="1"
     fill="#000000"
     id="g119">
    <g
       transform="translate(154.468735, 212.325029)"
       id="g118">
      <g
         id="g117">
        <path
           d="M 3.296875 -6.296875 L 4.15625 -6.296875 C 4.25 -6.296875 4.296875 -6.25 4.296875 -6.15625 L 4.296875 -0.140625 C 4.296875 -0.046875 4.25 0 4.15625 0 L 3.4375 0 C 3.363281 0 3.3125 -0.0351562 3.28125 -0.109375 L 1.578125 -3.5625 L 1.578125 -0.140625 C 1.578125 -0.046875 1.53125 0 1.4375 0 L 0.59375 0 C 0.5 0 0.453125 -0.046875 0.453125 -0.140625 L 0.453125 -6.15625 C 0.453125 -6.25 0.5 -6.296875 0.59375 -6.296875 L 1.3125 -6.296875 C 1.375 -6.296875 1.425781 -6.257812 1.46875 -6.1875 L 3.15625 -2.75 L 3.15625 -6.15625 C 3.15625 -6.25 3.203125 -6.296875 3.296875 -6.296875 Z M 3.296875 -6.296875"
           id="path116" />
      </g>
    </g>
  </g>
  <g
     fill-opacity="1"
     fill="#000000"
     id="g122">
    <g
       transform="translate(160.43581, 212.325029)"
       id="g121">
      <g
         id="g120">
        <path
           d="M 0.453125 -1.296875 L 0.453125 -5 C 0.453125 -5.425781 0.5625 -5.75 0.78125 -5.96875 C 1 -6.1875 1.320312 -6.296875 1.75 -6.296875 L 2.75 -6.296875 C 3.175781 -6.296875 3.5 -6.1875 3.71875 -5.96875 C 3.9375 -5.75 4.046875 -5.425781 4.046875 -5 L 4.046875 -4.34375 C 4.046875 -4.238281 4 -4.1875 3.90625 -4.1875 L 3.0625 -4.1875 C 2.96875 -4.1875 2.921875 -4.238281 2.921875 -4.34375 L 2.921875 -4.78125 C 2.921875 -5.019531 2.800781 -5.140625 2.5625 -5.140625 L 1.984375 -5.140625 C 1.742188 -5.140625 1.625 -5.019531 1.625 -4.78125 L 1.625 -1.515625 C 1.625 -1.273438 1.742188 -1.15625 1.984375 -1.15625 L 2.5625 -1.15625 C 2.800781 -1.15625 2.921875 -1.273438 2.921875 -1.515625 L 2.921875 -2.296875 L 2.453125 -2.296875 C 2.347656 -2.296875 2.296875 -2.347656 2.296875 -2.453125 L 2.296875 -3.34375 C 2.296875 -3.4375 2.347656 -3.484375 2.453125 -3.484375 L 3.90625 -3.484375 C 4 -3.484375 4.046875 -3.4375 4.046875 -3.34375 L 4.046875 -1.296875 C 4.046875 -0.878906 3.9375 -0.554688 3.71875 -0.328125 C 3.5 -0.109375 3.175781 0 2.75 0 L 1.75 0 C 1.320312 0 1 -0.109375 0.78125 -0.328125 C 0.5625 -0.554688 0.453125 -0.878906 0.453125 -1.296875 Z M 0.453125 -1.296875"
           id="path119" />
      </g>
    </g>
  </g>
  <g
     fill-opacity="1"
     fill="#000000"
     id="g125">
    <g
       transform="translate(166.159881, 212.325029)"
       id="g124">
      <g
         id="g123" />
    </g>
  </g>
  <g
     fill-opacity="1"
     fill="#000000"
     id="g128">
    <g
       transform="translate(169.633929, 212.325029)"
       id="g127">
      <g
         id="g126">
        <path
           d="M 0.40625 -7.203125 L 3.71875 -7.203125 C 3.820312 -7.203125 3.875 -7.15625 3.875 -7.0625 L 3.875 -6.15625 C 3.875 -6.0625 3.820312 -6.015625 3.71875 -6.015625 L 2.6875 -6.015625 L 2.6875 -0.140625 C 2.6875 -0.046875 2.632812 0 2.53125 0 L 1.609375 0 C 1.503906 0 1.453125 -0.046875 1.453125 -0.140625 L 1.453125 -6.015625 L 0.40625 -6.015625 C 0.3125 -6.015625 0.265625 -6.0625 0.265625 -6.15625 L 0.265625 -7.0625 C 0.265625 -7.15625 0.3125 -7.203125 0.40625 -7.203125 Z M 0.40625 -7.203125"
           id="path125" />
      </g>
    </g>
  </g>
  <g
     fill-opacity="1"
     fill="#000000"
     id="g131">
    <g
       transform="translate(174.997992, 212.325029)"
       id="g130">
      <g
         id="g129">
        <path
           d="M 0.453125 -1.296875 L 0.453125 -5 C 0.453125 -5.425781 0.5625 -5.75 0.78125 -5.96875 C 1 -6.1875 1.320312 -6.296875 1.75 -6.296875 L 2.75 -6.296875 C 3.175781 -6.296875 3.5 -6.1875 3.71875 -5.96875 C 3.9375 -5.75 4.046875 -5.425781 4.046875 -5 L 4.046875 -1.296875 C 4.046875 -0.878906 3.9375 -0.554688 3.71875 -0.328125 C 3.5 -0.109375 3.175781 0 2.75 0 L 1.75 0 C 1.320312 0 1 -0.109375 0.78125 -0.328125 C 0.5625 -0.554688 0.453125 -0.878906 0.453125 -1.296875 Z M 1.984375 -1.15625 L 2.5625 -1.15625 C 2.800781 -1.15625 2.921875 -1.273438 2.921875 -1.515625 L 2.921875 -4.78125 C 2.921875 -5.019531 2.800781 -5.140625 2.5625 -5.140625 L 1.984375 -5.140625 C 1.742188 -5.140625 1.625 -5.019531 1.625 -4.78125 L 1.625 -1.515625 C 1.625 -1.273438 1.742188 -1.15625 1.984375 -1.15625 Z M 1.984375 -1.15625"
           id="path128" />
      </g>
    </g>
  </g>
  <g
     fill-opacity="1"
     fill="#000000"
     id="g134">
    <g
       transform="translate(180.722063, 212.325029)"
       id="g133">
      <g
         id="g132">
        <path
           d="M 0.453125 -1.296875 L 0.453125 -5 C 0.453125 -5.425781 0.5625 -5.75 0.78125 -5.96875 C 1 -6.1875 1.320312 -6.296875 1.75 -6.296875 L 2.75 -6.296875 C 3.175781 -6.296875 3.5 -6.1875 3.71875 -5.96875 C 3.9375 -5.75 4.046875 -5.425781 4.046875 -5 L 4.046875 -1.296875 C 4.046875 -0.878906 3.9375 -0.554688 3.71875 -0.328125 C 3.5 -0.109375 3.175781 0 2.75 0 L 1.75 0 C 1.320312 0 1 -0.109375 0.78125 -0.328125 C 0.5625 -0.554688 0.453125 -0.878906 0.453125 -1.296875 Z M 1.984375 -1.15625 L 2.5625 -1.15625 C 2.800781 -1.15625 2.921875 -1.273438 2.921875 -1.515625 L 2.921875 -4.78125 C 2.921875 -5.019531 2.800781 -5.140625 2.5625 -5.140625 L 1.984375 -5.140625 C 1.742188 -5.140625 1.625 -5.019531 1.625 -4.78125 L 1.625 -1.515625 C 1.625 -1.273438 1.742188 -1.15625 1.984375 -1.15625 Z M 1.984375 -1.15625"
           id="path131" />
      </g>
    </g>
  </g>
  <g
     fill-opacity="1"
     fill="#000000"
     id="g137">
    <g
       transform="translate(186.446134, 212.325029)"
       id="g136">
      <g
         id="g135">
        <path
           d="M 1.671875 -1.1875 L 1.671875 -6.15625 C 1.671875 -6.25 1.625 -6.296875 1.53125 -6.296875 L 0.59375 -6.296875 C 0.5 -6.296875 0.453125 -6.25 0.453125 -6.15625 L 0.453125 -0.140625 C 0.453125 -0.046875 0.5 0 0.59375 0 L 3.453125 0 C 3.546875 0 3.59375 -0.046875 3.59375 -0.140625 L 3.59375 -1.046875 C 3.59375 -1.140625 3.546875 -1.1875 3.453125 -1.1875 Z M 1.671875 -1.1875"
           id="path134" />
      </g>
    </g>
  </g>
  <g
     fill-opacity="1"
     fill="#000000"
     id="g140">
    <g
       transform="translate(191.720201, 212.325029)"
       id="g139">
      <g
         id="g138">
        <path
           d="M 4.296875 0 L 3.34375 0 C 3.257812 0 3.191406 -0.046875 3.140625 -0.140625 L 2 -2.359375 L 1.671875 -1.71875 L 1.671875 -0.1875 C 1.671875 -0.0625 1.613281 0 1.5 0 L 0.625 0 C 0.507812 0 0.453125 -0.0625 0.453125 -0.1875 L 0.453125 -6.125 C 0.453125 -6.238281 0.507812 -6.296875 0.625 -6.296875 L 1.5 -6.296875 C 1.613281 -6.296875 1.671875 -6.238281 1.671875 -6.125 L 1.671875 -3.78125 L 3.0625 -6.171875 C 3.101562 -6.253906 3.171875 -6.296875 3.265625 -6.296875 L 4.21875 -6.296875 C 4.28125 -6.296875 4.320312 -6.273438 4.34375 -6.234375 C 4.375 -6.191406 4.375 -6.140625 4.34375 -6.078125 L 2.8125 -3.390625 L 4.4375 -0.203125 C 4.46875 -0.140625 4.46875 -0.0859375 4.4375 -0.046875 C 4.414062 -0.015625 4.367188 0 4.296875 0 Z M 4.296875 0"
           id="path137" />
      </g>
    </g>
  </g>
  <g
     fill-opacity="1"
     fill="#000000"
     id="g143">
    <g
       transform="translate(197.768277, 212.325029)"
       id="g142">
      <g
         id="g141">
        <path
           d="M 0.59375 0 L 1.53125 0 C 1.625 0 1.671875 -0.046875 1.671875 -0.140625 L 1.671875 -6.15625 C 1.671875 -6.25 1.625 -6.296875 1.53125 -6.296875 L 0.59375 -6.296875 C 0.5 -6.296875 0.453125 -6.25 0.453125 -6.15625 L 0.453125 -0.140625 C 0.453125 -0.046875 0.5 0 0.59375 0 Z M 0.59375 0"
           id="path140" />
      </g>
    </g>
  </g>
  <g
     fill-opacity="1"
     fill="#000000"
     id="g146">
    <g
       transform="translate(201.116326, 212.325029)"
       id="g145">
      <g
         id="g144">
        <path
           d="M 3.71875 -6.296875 L 0.40625 -6.296875 C 0.3125 -6.296875 0.265625 -6.25 0.265625 -6.15625 L 0.265625 -5.25 C 0.265625 -5.15625 0.3125 -5.109375 0.40625 -5.109375 L 1.453125 -5.109375 L 1.453125 -0.140625 C 1.453125 -0.046875 1.503906 0 1.609375 0 L 2.53125 0 C 2.632812 0 2.6875 -0.046875 2.6875 -0.140625 L 2.6875 -5.109375 L 3.71875 -5.109375 C 3.820312 -5.109375 3.875 -5.15625 3.875 -5.25 L 3.875 -6.15625 C 3.875 -6.25 3.820312 -6.296875 3.71875 -6.296875 Z M 3.71875 -6.296875"
           id="path143" />
      </g>
    </g>
  </g>
</svg>
